<svg xmlns="http://www.w3.org/2000/svg" viewBox="0 0 310 140"><defs><style>.a{fill:none;}.b{fill:#0071ce;}</style></defs><title>Aladdin_orig_t</title><rect class="a" width="310" height="140"/><path class="b" d="M42,65.24,54.53,40.67c.37-.72.81-1.08,1.26-1.08a1.67,1.67,0,0,1,1.33,1L69.6,65.24ZM55.79,35a6.09,6.09,0,0,0-5.46,3.59L28,82.48a4.67,4.67,0,0,0,6.2-1.94l5.47-10.7H72l5.46,10.7a4.78,4.78,0,0,0,6.28,1.94L61.32,38.59A6.15,6.15,0,0,0,55.79,35"/><path class="b" d="M90.13,35H90V78.46a4.57,4.57,0,0,0,4.66,4.46h.08V39.52A4.55,4.55,0,0,0,90.13,35"/><path class="b" d="M130.3,74.08a14,14,0,0,1-10.12,4.24,12.47,12.47,0,1,1,0-24.93c8.27,0,13.44,4.74,13.44,12.49V78.46a4.63,4.63,0,0,0,4.73,4.46v-17c0-10.27-7.31-17.09-18.17-17.09A17.33,17.33,0,0,0,102.6,65.89c0,9.41,7.9,17,17.58,17A19.49,19.49,0,0,0,128.82,81a4.56,4.56,0,0,0,1.92-6.25l-.44-.65"/><path class="b" d="M176,39.52V65.89c0,7.69-5.17,12.43-13.44,12.43a12.47,12.47,0,1,1,0-24.93v.07a13.87,13.87,0,0,1,10.11,4.17,3.78,3.78,0,0,0,.45-.57,4.52,4.52,0,0,0-1.93-6.25,18.56,18.56,0,0,0-8.63-2A17.38,17.38,0,0,0,145,65.89c0,9.41,7.9,17,17.57,17,10.85,0,18.16-6.83,18.16-17V35A4.63,4.63,0,0,0,176,39.52"/><path class="b" d="M205,82.92c10.86,0,18.17-6.83,18.17-17V35a4.63,4.63,0,0,0-4.72,4.52V65.89c0,7.69-5.17,12.43-13.45,12.43a12.47,12.47,0,1,1,0-24.93v.07a13.91,13.91,0,0,1,10.12,4.17,3.26,3.26,0,0,0,.44-.57,4.52,4.52,0,0,0-1.91-6.25,18.61,18.61,0,0,0-8.65-2,17.38,17.38,0,0,0-17.57,17.09c0,9.41,7.9,17,17.57,17"/><path class="b" d="M234.65,43a2.53,2.53,0,0,0,2.58-2.45A2.59,2.59,0,0,0,234.65,38a2.52,2.52,0,0,0-2.51,2.51A2.46,2.46,0,0,0,234.65,43"/><path class="b" d="M236.93,82.92h.15V53.25a4.63,4.63,0,0,0-4.73-4.45h-.07V78.46a4.56,4.56,0,0,0,4.65,4.46"/><path class="b" d="M276.67,65.89V78.46a4.55,4.55,0,0,0,4.58,4.46h.15v-17a17.58,17.58,0,0,0-35.15,0v17h.15A4.55,4.55,0,0,0,251,78.46V65.89a12.86,12.86,0,0,1,25.7,0"/><path class="b" d="M139.54,93.09a5.95,5.95,0,1,0,0,11.87,6.48,6.48,0,0,0,3.6-1.06,5.83,5.83,0,0,0,1.76-1.73l.18-.27-.26-.21a1.55,1.55,0,0,0-2,.13,4.63,4.63,0,0,1-3.29,1.34,4.14,4.14,0,1,1,0-8.25,4.64,4.64,0,0,1,3.69,1.82,1.53,1.53,0,0,0,1.92.31l.29-.18-.15-.3a6.39,6.39,0,0,0-5.75-3.46"/><path class="b" d="M155.48,103.19a4.22,4.22,0,1,1,4.58-4.2,4.4,4.4,0,0,1-4.58,4.2m0-10.22a6,6,0,1,0,6.44,6,6.25,6.25,0,0,0-6.44-6"/><path class="b" d="M178.37,93.13a1.17,1.17,0,0,0-1,.58l-4.46,8.52-4.46-8.52a1.15,1.15,0,0,0-1-.58,1.18,1.18,0,0,0-1.2,1.13v10.29l0,.38h.39a1.43,1.43,0,0,0,1.44-1.42V97l3.34,6.39a1.59,1.59,0,0,0,3,0L177.72,97v6.57a1.42,1.42,0,0,0,1.44,1.37h.41V94.27a1.17,1.17,0,0,0-1.2-1.13"/><path class="b" d="M196.56,93.13a1.15,1.15,0,0,0-1,.58l-4.46,8.53-4.46-8.53a1.16,1.16,0,0,0-1-.58,1.18,1.18,0,0,0-1.2,1.13v10.29l0,.38h.39a1.43,1.43,0,0,0,1.44-1.42V97l3.34,6.39a1.59,1.59,0,0,0,3,0L195.91,97v6.57a1.42,1.42,0,0,0,1.44,1.37h.42V94.27a1.19,1.19,0,0,0-1.21-1.13"/><path class="b" d="M202.59,94.58v8.88a1.44,1.44,0,0,0,1.47,1.37h8.89v-.38A1.45,1.45,0,0,0,211.5,103h-7.05V99.66h6a1.45,1.45,0,0,0,1.46-1.43v-.38h-7.42V95h7.22a1.45,1.45,0,0,0,1.47-1.45V93.2H204a1.43,1.43,0,0,0-1.43,1.39"/><path class="b" d="M219.46,95h4.11c3.08,0,3.08,1.26,3.08,1.74a1.41,1.41,0,0,1-.75,1.35,4.52,4.52,0,0,1-2.33.48H220.7a1.49,1.49,0,0,0-1.24.65Zm9.05,1.74c0-1.07-.48-3.57-4.94-3.57H219a1.43,1.43,0,0,0-1.44,1.38v10l0,.38H218a1.43,1.43,0,0,0,1.44-1.42v-3.1h3.61l3.43,4a1.49,1.49,0,0,0,2.06.18l.29-.24-3.52-4.15c2-.42,3.19-1.66,3.19-3.47"/><path class="b" d="M238.86,93.09a5.95,5.95,0,1,0,0,11.87,6.4,6.4,0,0,0,3.6-1.06,5.94,5.94,0,0,0,1.77-1.73l.19-.28-.26-.21a1.55,1.55,0,0,0-2,.13,4.63,4.63,0,0,1-3.29,1.34,4.14,4.14,0,1,1,0-8.25,4.63,4.63,0,0,1,3.68,1.82,1.53,1.53,0,0,0,1.92.31l.29-.18-.15-.3a6.37,6.37,0,0,0-5.74-3.46"/><path class="b" d="M249.39,93.13H249v10.4a1.43,1.43,0,0,0,1.45,1.4h.4V94.55a1.44,1.44,0,0,0-1.47-1.42"/><path class="b" d="M264.26,100.11h-5.13l2.58-5Zm-2.56-7a1.78,1.78,0,0,0-1.61,1l-5.34,10.46.35.16a1.5,1.5,0,0,0,1.94-.62l1.15-2.26h7l1.16,2.27a1.46,1.46,0,0,0,1.3.76,1.55,1.55,0,0,0,.66-.15l.35-.17-5.33-10.45a1.81,1.81,0,0,0-1.62-1"/><path class="b" d="M280.58,103H274.3V94.55a1.46,1.46,0,0,0-1.48-1.42h-.39v10.31a1.44,1.44,0,0,0,1.48,1.39H282v-.38a1.45,1.45,0,0,0-1.46-1.43"/></svg>