<svg xmlns="http://www.w3.org/2000/svg" viewBox="0 0 310 140"><defs><style>.a{fill:none;}.b{fill:#231f20;}</style></defs><title>Armstrong_orig_t</title><rect class="a" width="310" height="140"/><path class="b" d="M59.25,74l6.06-10.81L71.55,74Zm5.53,25.67A25.64,25.64,0,1,1,88.06,63.13H85V83.45L69.41,56.12H62L44.39,85.35h8.38L56,79.64H74.69L78,85.35h9.86A25.52,25.52,0,0,1,64.77,99.67Zm24.9-14.32h2.14V75.49c0-2.44.12-4,1.07-5.17,1.6-2,4.75-1.6,4.75-1.6V63.31A5.53,5.53,0,0,0,91.81,66V63.19h-1.9A27.66,27.66,0,0,0,64.71,46.67a27.33,27.33,0,1,0,25,38.68Z"/><path class="b" d="M105.77,72.22A4.6,4.6,0,0,1,107,68.95a5.33,5.33,0,0,1,3.8-1.19,4.83,4.83,0,0,1,3.62,1.19,4.88,4.88,0,0,1,.83,2.73s.12,11.88,0,13.67H122c-.12-1.78,0-13.13,0-13.13a4.29,4.29,0,0,1,1.37-3.27,5.33,5.33,0,0,1,3.8-1.19c1.78,0,3.09.42,3.62,1.19a4,4,0,0,1,.83,2.73s.3,11.88,0,13.67h6.77V70.73c0-5.94-3.51-8.26-8.67-8.26a11.41,11.41,0,0,0-8.14,3.39s-1.9-3.51-7.72-3.51c-6.24,0-8.14,3.39-8.14,3.39V63.19H98.82V85.41h6.89c-.18-1.84.06-13.19.06-13.19Z"/><path class="b" d="M242.84,65.86s-1.49-3.39-7.61-3.39c-5.82,0-7.72,3.27-7.72,3.27V63.19h-6.89V85.41h6.89c-.3-1.78-.12-13.13-.12-13.13A4.88,4.88,0,0,1,228.76,69a5.12,5.12,0,0,1,3.8-1.19c1.6,0,3,.42,3.51,1.19a4,4,0,0,1,.83,2.73s.12,11.88,0,13.67h6.89v-15c0-.06.18-2.91-1-4.52Z"/><path class="b" d="M139.64,69.9s-1-8,12.72-7.43c0,0,6.48-.3,9.21,2.14a5.65,5.65,0,0,1,1.9,3.92h-7.72s.12-1.6-4.46-1.37-4,2-4,2-.3,1.78,3.09,2.14c4.22.42,14.08.3,13.67,7.19s-7.72,7.61-12.06,7.61-11.35-.65-12.42-7h8.14s-.12,2.32,4.87,2.32c4.22-.12,3.8-2.32,3.8-2.32s.3-1.78-2.55-2.14c-4.69-.83-14.14.12-14.14-7.07Z"/><path class="b" d="M177,79.82a6.44,6.44,0,0,1-3-.65,4.25,4.25,0,0,1-.53-2.44V68.59h4.22V63.48h-4.22V58.61h-6.77v4.87h-3.21v5.11h3.27v8.67s-.12,4.58,1.49,6.24c2,2,3.39,1.9,10.81,1.9V79.82Z"/><path class="b" d="M272.49,83V63.13h-6.77v2a12.35,12.35,0,0,0-7.84-2.73,12.85,12.85,0,0,0-9.74,3.8c-3.51,3.27-3.39,8.26-3.39,8.26a12.12,12.12,0,0,0,3,7.61,14.42,14.42,0,0,0,8.67,4c5.29.42,7.31-1.37,9.33-2.85,0,1.19.12,8.14-6.77,8-5.7-.12-5.41-3.39-5.41-3.39h-8.38a10.76,10.76,0,0,0,5.11,6.65,16.89,16.89,0,0,0,8.67,1.9s7.43.53,10.93-3.92C272.79,89,272.49,83,272.49,83Zm-9-4.16a7.29,7.29,0,0,1-5.11,1.6A6.16,6.16,0,0,1,252,74.53,6.42,6.42,0,0,1,253.78,70a7.66,7.66,0,0,1,5.41-1.9,6.67,6.67,0,0,1,4.87,1.9,5.48,5.48,0,0,1,1.6,4.34,5.67,5.67,0,0,1-2.2,4.58Z"/><path class="b" d="M199.59,74.36c0-3.51,3-6.24,6.77-6.24s6.77,2.73,6.77,6.24a6.8,6.8,0,0,1-13.55,0Zm6.77,11.94c7.43,0,13.37-5.29,13.37-11.88s-5.94-11.88-13.37-11.88S193,67.82,193,74.42s5.88,11.88,13.37,11.88Z"/><path class="b" d="M186.87,66.28V63.19H180.1V85.41h6.77V75.72c0-2.44.3-4,1.07-5.11,2.32-2.73,6.06-2,6.06-2V63.19c0-.06-4.87-.3-7.13,3.09Z"/></svg>