<svg xmlns="http://www.w3.org/2000/svg" viewBox="0 0 274 140"><defs><style>.a{fill:none;}.b,.f{fill:#ee3e41;}.b,.c,.d{fill-rule:evenodd;}.c{fill:#006940;}.d,.e{fill:#fff;}</style></defs><title>Bellacera_orig_t</title><rect class="a" width="274" height="140"/><polygon class="b" points="202.6 30 71.4 30 71.4 110 202.6 110 202.6 30 202.6 30"/><polygon class="c" points="137 41.41 79.81 41.41 79.81 98.59 137 98.59 137 41.41 137 41.41"/><polygon class="d" points="194.19 41.41 137 41.41 137 98.59 194.19 98.59 194.19 41.41 194.19 41.41"/><path class="e" d="M93.71,69.51a14.53,14.53,0,0,1,3.7.83,3.26,3.26,0,0,1,1.75,3.17q0,2.74-3,4.61a10.58,10.58,0,0,1-5.52,1.44c-.63,0-1.41,0-2.33-.06h-.55l-.76,0-.35,0-.28-.07,0-.38.06-.16a.34.34,0,0,1,.26-.07H87a.84.84,0,0,0,1-.79c.07-.45.13-1,.16-1.7l.13-1.76c.09-1,.16-2.19.21-3.47l.09-2.68,0-1.42c0-.42,0-.83,0-1.2l0-1.48,0-.87a.39.39,0,0,0-.11-.22l-.14-.06-.11,0-2,.69-.31.06a.3.3,0,0,1-.22-.06.25.25,0,0,1-.13-.31.27.27,0,0,1,.08-.24.91.91,0,0,1,.46-.22l1.29-.33a22.09,22.09,0,0,1,5.44-.74,14.63,14.63,0,0,1,2.6.22c1.64.31,2.49,1.13,2.53,2.46a3.59,3.59,0,0,1-1.3,2.74,9.29,9.29,0,0,1-.87.69c-.44.32-1.12.76-2,1.33Zm-3.26.74,0,.7-.07,1.27,0,1.18L90.12,77l.08.26c.05.16.2.28.47.37l.55.18a6,6,0,0,0,1.68.3q3.33,0,3.38-3.55a4.25,4.25,0,0,0-1.41-3.07,4.66,4.66,0,0,0-3.16-1.24H90.45ZM90.91,63l-.07.71q-.08.58-.17,2.17l-.13,1.93-.08,1.54.93,0h.93l.62,0,.46-.26a5.36,5.36,0,0,0,.62-.56l.41-.48A3.27,3.27,0,0,0,95,66.07q0-2.93-3.45-3.06l-.67,0Z"/><path class="e" d="M103,73a3.51,3.51,0,0,0,0,.69,6.14,6.14,0,0,0,.54,2.39c.45,1,1,1.55,1.68,1.54a1.54,1.54,0,0,0,1.16-.43l1-1.11a1.49,1.49,0,0,1,.33-.26l.13,0,.17,0a.91.91,0,0,1,.18.2l0,.11,0,.09a1.54,1.54,0,0,1-.38.43c-.19.16-.6.56-1.22,1.2l-1.11,1.06A3.32,3.32,0,0,1,103.3,80q-1.64.08-2.1-2.38a10.23,10.23,0,0,1-.24-2.36,12.44,12.44,0,0,1,.18-2.22,17.6,17.6,0,0,1,1.09-4,8.21,8.21,0,0,1,2-2.85l.92-.79a3.51,3.51,0,0,1,2-.76c1.1,0,1.68.52,1.71,1.53q0,2.15-3.16,4.65L104,72.08l-.76.63L103,73Zm-.06-.87.2-.11a4.76,4.76,0,0,0,.69-.5,10.35,10.35,0,0,0,1.39-1.27,3.76,3.76,0,0,0,1-2.51c0-.75-.33-1.13-1-1.13q-1.7-.06-2.29,5.32l0,.2Z"/><path class="e" d="M114.89,54.5l.05.13a.71.71,0,0,1,0,.23,11.33,11.33,0,0,0-.41,1.68l-.16,1c-.21,1.32-.33,2.19-.37,2.61L113.78,62l-.33,2.55-.28,3c-.08,1.18-.18,2.22-.3,3.11-.16,1.34-.25,2.16-.26,2.48l-.09,1.73a12,12,0,0,0,0,1.28c0,1.47.38,2.19,1.15,2.18a1.25,1.25,0,0,0,.65-.14l.28-.09c.19,0,.3.11.33.42l-.06.18a.68.68,0,0,1-.42.09l-.59.14-.72.22a16.27,16.27,0,0,0-2,.66,1.48,1.48,0,0,1-.59.16l-.13-.06a.31.31,0,0,1-.06-.22l0-.65.14-1.22.13-1.42c.08-.85.18-1.81.31-2.89l.38-3.06q.17-1.33.7-7.4l.26-3.21c0-.79.06-1.51.07-2.18,0-1.18-.11-1.8-.37-1.85l-.24,0a1,1,0,0,0-.28,0,4.87,4.87,0,0,1-1.1.18l-.15-.08a.61.61,0,0,1-.11-.37l0-.16.18-.09a2.17,2.17,0,0,1,.4-.07l1.2-.11a4,4,0,0,0,1-.19l1.84-.48.11.06Z"/><path class="e" d="M120.46,54.5l.05.13a.71.71,0,0,1,0,.23,11.32,11.32,0,0,0-.41,1.68l-.16,1c-.21,1.32-.33,2.19-.37,2.61L119.36,62,119,64.52l-.28,3c-.08,1.18-.18,2.22-.3,3.11-.16,1.34-.25,2.16-.26,2.48l-.09,1.73a12,12,0,0,0,0,1.28c0,1.47.38,2.19,1.15,2.18a1.25,1.25,0,0,0,.65-.14l.28-.09c.19,0,.3.11.33.42l-.06.18a.68.68,0,0,1-.42.09l-.59.14-.72.22a16.27,16.27,0,0,0-2,.66,1.48,1.48,0,0,1-.59.16l-.13-.06a.31.31,0,0,1-.06-.22l0-.65.14-1.22.13-1.42c.08-.85.18-1.81.31-2.89l.38-3.06q.17-1.33.7-7.4l.26-3.21c0-.79.06-1.51.07-2.18,0-1.18-.11-1.8-.37-1.85l-.24,0a1,1,0,0,0-.28,0A4.87,4.87,0,0,1,116,56l-.15-.08a.61.61,0,0,1-.11-.37l0-.16.18-.09a2.17,2.17,0,0,1,.4-.07l1.2-.11a4,4,0,0,0,1-.19l1.84-.48.11.06Z"/><path class="e" d="M128.17,71.92l-2.09,3a20.83,20.83,0,0,1-2.23,2.8l-1.33,1.31a4.61,4.61,0,0,1-1.09.89h-.13l-.13-.11a1.07,1.07,0,0,1-.08-.57l.18-2.18a21.54,21.54,0,0,1,1.18-5.53A10.67,10.67,0,0,1,126,66.42a9.52,9.52,0,0,1,1.22-.78,7.59,7.59,0,0,1,2.8-.85,7.79,7.79,0,0,0,1.13-.16l.13,0,.08,0v.13l-.22.35a1.91,1.91,0,0,0-.3.62l-.33,1a11.43,11.43,0,0,0-.33,1.66l-.41,3.17-.26,2.12-.08,2.23a3.67,3.67,0,0,0,.19,1.46l.16.2a.61.61,0,0,0,.59.33,1.4,1.4,0,0,0,.82-.32,5.76,5.76,0,0,1,.62-.42H132a.5.5,0,0,1,.13.15l.06.19v.19a.35.35,0,0,1-.24.32l-1.33.6-2.1,1.2-.28.11-.26,0q-.11,0-.15,0l-.11-.08a.93.93,0,0,1-.18-.74l.07-1.05.28-2.7.52-3.4.06-.42-.24.35Zm1-4.86-.5-.06h-.26q-2.4,0-3,.83a7.67,7.67,0,0,0-1.22,3l-.38,1.69a21.77,21.77,0,0,0-.44,4.14l.11.54.19-.09.31-.26c.27-.27.59-.62.95-1.05.49-.6.81-1,1-1.24l.66-1.05.76-1.2.76-1.59.42-.83.44-1.41.23-.87.05-.52Z"/><path class="f" d="M155.88,76a.52.52,0,0,1,.38.31l0,.11,0,.19a5.92,5.92,0,0,1-.66.6l-1.35,1.11a7.54,7.54,0,0,1-3.06,1.42,6.74,6.74,0,0,1-1.86.26,6,6,0,0,1-2-.33q-4.21-1.2-4.15-6.84A9.73,9.73,0,0,1,145,66.85l.59-.72a10,10,0,0,1,.74-.79,6.62,6.62,0,0,1,1-.85l.81-.55a11.28,11.28,0,0,1,5.91-1.85h.62l.46,0a8.35,8.35,0,0,1,1.13.11c.27,0,.4.13.4.3l-.06.24-.3.83c-.26.76-.42,1.28-.49,1.54a2.42,2.42,0,0,0-.08.76v.95h0l0,.32-.09.14a.29.29,0,0,1-.26.09l-.39-.06-.13-.08-.06-.13.22-1.41,0-.22c0-1-1.08-1.51-3.23-1.48s-3.61.63-4.45,1.74a9,9,0,0,0-1.68,4.56,8.36,8.36,0,0,0,.09,3,5,5,0,0,0,.57,1.63,2.26,2.26,0,0,0,.39.55,5.07,5.07,0,0,0,2.29,1.71,8.36,8.36,0,0,0,2.85.47,4.38,4.38,0,0,0,1.13-.09,3.87,3.87,0,0,0,1.71-.72l1-.83.15-.06Z"/><path class="f" d="M160.25,73a3.51,3.51,0,0,0,0,.69,6.14,6.14,0,0,0,.54,2.39c.45,1,1,1.55,1.68,1.54a1.54,1.54,0,0,0,1.16-.43l1-1.11a1.49,1.49,0,0,1,.33-.26l.13,0,.17,0a.91.91,0,0,1,.18.2l0,.11,0,.09a1.54,1.54,0,0,1-.38.43c-.19.16-.6.56-1.22,1.2l-1.11,1.06A3.32,3.32,0,0,1,160.58,80q-1.64.08-2.1-2.38a10.23,10.23,0,0,1-.24-2.36,12.44,12.44,0,0,1,.18-2.22,17.6,17.6,0,0,1,1.09-4,8.21,8.21,0,0,1,2-2.85l.92-.79a3.51,3.51,0,0,1,2-.76c1.1,0,1.68.52,1.71,1.53q0,2.15-3.16,4.65l-1.68,1.29-.76.63-.3.26Zm-.06-.87.2-.11a4.76,4.76,0,0,0,.69-.5,10.35,10.35,0,0,0,1.39-1.27,3.76,3.76,0,0,0,1-2.51c0-.75-.33-1.13-1-1.13q-1.7-.06-2.29,5.32l0,.2Z"/><path class="f" d="M171.25,70.06a13.49,13.49,0,0,1,3.45-5,1.28,1.28,0,0,1,.83-.4c.36,0,.59.3.7.81l.08.55v.27c0,.5-.21.8-.59.9l-1.22.3c-1.32.35-2.35,1.6-3.09,3.76a12.66,12.66,0,0,0-.59,2.21c-.18,1-.37,2.27-.55,3.89l-.14,1.13-.09.63,0,.33-.5.08-.33,0-.48-.06,0-.2.13-.85c.05-.38.09-.75.11-1.1l.09-1.35.26-3.74,0-1.9,0-1.83c0-1.75-.33-2.61-1-2.6l-.66,0c-.18,0-.28-.08-.3-.31a.43.43,0,0,1,.09-.29.3.3,0,0,1,.22-.09l.38,0h.26c.4,0,.86-.05,1.37-.11l.5-.08c.79-.23,1.22-.34,1.25-.34l.09,0a.65.65,0,0,1,.06.2,4.77,4.77,0,0,1,0,.5l-.18,1.77-.17,1.31L171.14,70l0,.47.14-.45Z"/><path class="f" d="M182.66,71.92l-2.09,3a20.83,20.83,0,0,1-2.23,2.8L177,79.08a4.61,4.61,0,0,1-1.09.89h-.13l-.13-.11a1.07,1.07,0,0,1-.08-.57l.18-2.18A21.54,21.54,0,0,1,177,71.58a10.67,10.67,0,0,1,3.49-5.15,9.52,9.52,0,0,1,1.22-.78,7.59,7.59,0,0,1,2.8-.85,7.79,7.79,0,0,0,1.13-.16l.13,0,.08,0v.13l-.22.35a1.91,1.91,0,0,0-.3.62l-.33,1a11.43,11.43,0,0,0-.33,1.66l-.41,3.17L184,73.68l-.08,2.23a3.67,3.67,0,0,0,.19,1.46l.16.2a.61.61,0,0,0,.59.33,1.4,1.4,0,0,0,.82-.32,5.76,5.76,0,0,1,.62-.42h.19a.5.5,0,0,1,.13.15l.06.19v.19a.35.35,0,0,1-.24.32l-1.33.6-2.1,1.2-.28.11-.26,0q-.11,0-.15,0l-.11-.08a.93.93,0,0,1-.18-.74l.07-1.05.28-2.7.52-3.4.06-.42-.24.35Zm1-4.86-.5-.06h-.26q-2.4,0-3,.83a7.67,7.67,0,0,0-1.22,3l-.38,1.69a21.77,21.77,0,0,0-.44,4.14l.11.54.19-.09.31-.26c.27-.27.59-.62.95-1.05.49-.6.81-1,1-1.24l.66-1.05.76-1.2.76-1.59.42-.83.44-1.41.23-.87.05-.52Z"/></svg>