<svg xmlns="http://www.w3.org/2000/svg" viewBox="0 0 310 140"><defs><style>.a{fill:none;}.b{fill:#c23c40;}</style></defs><title>Bruce_orig_t</title><rect class="a" width="310" height="140"/><path class="b" d="M90.95,59c4,0,5.65,1.16,5.65,4.93,0,3.43-1.66,4.93-8.14,4.93h-7.2V59ZM89.18,41.58c4.43,0,5.54,1.66,5.54,4.21,0,2.77-1.11,4.43-5.54,4.43H81.26V41.58Zm-20,36.31H91.28c14.39,0,17.32-7.25,17.32-13,0-6.53-3.65-10.3-9.46-11.18v-.11c5.37-1.55,7.64-4.37,7.64-10.3,0-6.75-5-10.79-15.28-10.79H69.19V77.89Z"/><path class="b" d="M156.59,48.05V65a5.13,5.13,0,0,1-4.93,5.31c-2.71,0-4-1.38-4-4.48V48.05H135.45c-7.75,0-10.3.28-12.73,4.93h-.11V48.05H110.82V77.89H123V66c0-5.48,2.27-8.3,8-8.3a13.24,13.24,0,0,1,4.37.77v10a10.62,10.62,0,0,0,10.79,10.68c4.37,0,8.63-1.38,10.41-6.37h.11v5.09h12V48.05Z"/><path class="b" d="M192.4,58.57A6.66,6.66,0,0,0,191,55.42a4.18,4.18,0,0,0-3.15-1.16c-3.15,0-5.2,2.88-5.2,8.25,0,7.75,2.66,9.19,5.31,9.19,3.65,0,4.59-2.1,4.82-4.76H205a11.33,11.33,0,0,1-5.65,9.58,23.4,23.4,0,0,1-11.62,2.66c-10,0-17.88-5.81-17.88-16.38,0-7.47,6.09-16,18.15-16,8.52,0,15.72,4.32,17,11.79H192.4Z"/><path class="b" d="M217.09,59c.44-3.32,2.71-5.92,6.25-5.92s5.81,2.6,6.2,5.92ZM229,68.87a5.72,5.72,0,0,1-5.48,3.71c-4,0-6.09-2.71-6.48-7.2h23.86c.61-8.69-3.93-18.6-17.38-18.6-10.46,0-17.93,5.7-17.93,16.72,0,10.35,8.36,15.72,17.82,15.72,7.08,0,14.39-3.15,16.88-10.3H229Z"/><path class="b" d="M248,72.3a2.44,2.44,0,1,1-4.87,0,2.43,2.43,0,0,1,2.44-2.6A2.37,2.37,0,0,1,248,72.3Zm-2.38,3.54a3.46,3.46,0,0,0,3.54-3.54,3.54,3.54,0,1,0-3.54,3.54ZM245,72.63h.28l.83,1.55H247l-1-1.66c.61-.06,1.05-.28,1.05-1,0-.89-.61-1.16-1.55-1.16h-1.38v3.82H245l.06-1.55Zm0-.72V71h.5c.28,0,.72,0,.72.39s-.22.44-.5.44l-.72.06Z"/><path class="b" d="M68.86,85.42h1.38V95h.11a4.92,4.92,0,0,1,1.88-2.1,5.48,5.48,0,0,1,2.88-.83c1.33,0,4.93.72,4.93,6.2v8.86H78.66V98.48c0-2.66-1-5.09-3.87-5.09a4.62,4.62,0,0,0-4.26,3.32,3.75,3.75,0,0,0-.22,1.44v9H68.92V85.42Z"/><path class="b" d="M90.61,102.41a4.84,4.84,0,0,1-.11.89,4.27,4.27,0,0,1-4.21,2.93,2.78,2.78,0,0,1-2.82-3.1c0-3.49,4.1-4,7.14-3.87v3.15ZM92,97.92c0-2.6-.77-5.81-4.82-5.81A7.74,7.74,0,0,0,83,93.39l.44,1.05A6.24,6.24,0,0,1,87,93.33c3.32,0,3.6,2.88,3.6,4.37v.39c-5.76-.11-8.63,2-8.63,5.37a4,4,0,0,0,4.21,4,5.24,5.24,0,0,0,4.48-2.44h.11l.22,2h1.27a24.08,24.08,0,0,1-.22-3.49v-5.7Z"/><path class="b" d="M95.21,96.87c0-1.44-.06-2.93-.11-4.37h1.33l.06,3h.11a4.35,4.35,0,0,1,4-3.32,2,2,0,0,1,.61.11v1.38a3.16,3.16,0,0,0-.72-.06c-1.94,0-3.32,1.72-3.71,4.1a10.78,10.78,0,0,0-.11,1.38v8.08H95.32l-.11-10.3Z"/><path class="b" d="M112.15,101.19a4.32,4.32,0,0,1-.17,1.22,4.77,4.77,0,0,1-4.54,3.87c-3.32,0-4.93-3-4.93-6.37,0-3.76,1.94-6.53,5-6.53A4.59,4.59,0,0,1,112,97a5.62,5.62,0,0,1,.11,1.33v2.88Zm0-15.77v9.24H112a4.93,4.93,0,0,0-4.59-2.6c-3.49,0-6.37,3-6.37,8,0,4.37,2.6,7.42,6.09,7.42a5.36,5.36,0,0,0,5-3.1h.11l.11,2.77h1.27c-.11-1-.11-2.32-.11-3.38V85.42Z"/><path class="b" d="M116.52,92.44l2.38,8.36c.5,1.72.89,3.15,1.22,4.59h.06c.39-1.33.83-2.88,1.44-4.59l2.82-8.36h1.33l2.71,8.3c.61,1.77,1,3.32,1.38,4.65h.06c.28-1.33.77-2.82,1.33-4.59l2.49-8.36h1.44l-4.7,14.67h-1.22L126.59,99a50,50,0,0,1-1.49-5H125c-.44,1.72-1,3.32-1.55,5l-2.77,8.14h-1.22L115.13,92.5l1.38-.06Z"/><path class="b" d="M141.81,106.28c-2.88,0-5.15-2.77-5.15-6.42,0-3.15,1.66-6.53,5.26-6.53s5.2,3.71,5.2,6.37c-.06,3.76-2.38,6.59-5.31,6.59Zm0,1.16c3.1,0,6.7-2.32,6.7-7.8,0-4.54-2.66-7.58-6.53-7.58-3.49,0-6.7,2.77-6.7,7.8,0,4.65,2.77,7.58,6.53,7.58Z"/><path class="b" d="M156,106.28c-2.88,0-5.09-2.77-5.09-6.42,0-3.15,1.61-6.53,5.2-6.53s5.2,3.71,5.2,6.37c0,3.76-2.32,6.59-5.31,6.59Zm0,1.16c3.15,0,6.7-2.32,6.7-7.8,0-4.54-2.66-7.58-6.53-7.58-3.49,0-6.7,2.77-6.7,7.8.06,4.65,2.88,7.58,6.53,7.58Z"/><path class="b" d="M174.75,101.19a8.29,8.29,0,0,1-.11,1.22,4.82,4.82,0,0,1-4.54,3.87c-3.38,0-5-3-5-6.37,0-3.76,2-6.53,5-6.53a4.59,4.59,0,0,1,4.48,3.6,5.62,5.62,0,0,1,.11,1.33v2.88Zm0-15.77v9.24h-.06a5,5,0,0,0-4.59-2.6c-3.49,0-6.37,3-6.37,8,0,4.37,2.6,7.42,6.09,7.42a5.36,5.36,0,0,0,5-3.1H175l.11,2.77h1.27c-.11-1-.11-2.32-.11-3.38V85.42Z"/><path class="b" d="M185.21,107.11V93.61h-2V92.44h2v-.83a7.81,7.81,0,0,1,1.55-5.31A4.43,4.43,0,0,1,189.91,85a4.48,4.48,0,0,1,2.1.5l-.44,1.16a3.66,3.66,0,0,0-1.83-.44c-2.6,0-3.15,2.55-3.15,5.31v.83h3.82v1.16h-3.82v13.51h-1.38Z"/><polygon class="b" points="192.79 85.42 194.23 85.42 194.23 107.11 192.79 107.11 192.79 85.42"/><path class="b" d="M202.87,106.28c-2.88,0-5.09-2.77-5.09-6.42,0-3.15,1.66-6.53,5.26-6.53s5.15,3.71,5.15,6.37c0,3.76-2.32,6.59-5.31,6.59Zm0,1.16c3.15,0,6.75-2.32,6.75-7.8,0-4.54-2.6-7.58-6.53-7.58-3.49,0-6.7,2.77-6.7,7.8-.06,4.65,2.82,7.58,6.48,7.58Z"/><path class="b" d="M217.15,106.28c-2.88,0-5.15-2.77-5.15-6.42,0-3.15,1.66-6.53,5.26-6.53s5.2,3.71,5.2,6.37c-.06,3.76-2.38,6.59-5.31,6.59Zm-.06,1.16c3.15,0,6.75-2.32,6.75-7.8,0-4.54-2.66-7.58-6.53-7.58-3.49,0-6.75,2.77-6.75,7.8,0,4.65,2.82,7.58,6.53,7.58Z"/><path class="b" d="M226,96.87c0-1.44-.06-2.93-.11-4.37h1.33l.06,3h.11a4.35,4.35,0,0,1,4-3.32,1.64,1.64,0,0,1,.55.11v1.38a2.69,2.69,0,0,0-.66-.06c-1.94,0-3.32,1.72-3.71,4.1a5.61,5.61,0,0,0-.11,1.38v8.08h-1.38L226,96.87Z"/><path class="b" d="M232.64,105.23a6.45,6.45,0,0,0,3.15,1c2.21,0,3.32-1.27,3.32-2.77,0-1.66-1-2.49-3-3.32-2.27-.94-3.6-2.27-3.6-4a4,4,0,0,1,4.37-4,5.62,5.62,0,0,1,3.15.94l-.55,1.16a4.59,4.59,0,0,0-2.77-.89A2.56,2.56,0,0,0,234,95.88c0,1.55,1,2.21,2.93,3,2.27.94,3.65,2.1,3.65,4.32,0,2.55-1.88,4.21-4.76,4.21a7.18,7.18,0,0,1-3.54-1l.39-1.22Z"/></svg>