<svg xmlns="http://www.w3.org/2000/svg" id="Layer_1" viewBox="0 0 310 140">
  <style>
    .st0{fill:none;} .st1{fill:#CF0A2C;} .st2{fill:#FFFFFF;} .st3{fill:#231F20;}
  </style>
  <path d="M0 0h310v140H0z" class="st0"/>
  <path d="M63.5 79.7l-4.2-7.5c-3.2-5.3-9.9-7.1-15.3-4.2-6.2 3.5-4.8 8.4.1 17 5.3 9.4 8.2 12.6 15.1 8.6 4.6-2.5 7.2-8.7 4.3-13.9m15 1.6V43.5H51.1l22.8 40.4z" class="st1"/>
  <path d="M36.6 89.3c-3.6-6.4-2.4-17.7 6.3-22.5 4.4-2.4 9.8-2 13.7 1l.2-.1L44 45l-5.7 3.2-1.3-2 4.8-2.7H30v52h12.8c-2.6-1.5-4.8-3.6-6.3-6.3m42-5.6l-9.7 5.5-2.7-4.7-.2.1c0 4.5-2.4 8.7-6.4 10.9-.2.1-.3.2-.5.3h19.4V83.6z" class="st1"/>
  <path d="M66 84.4l.2-.1 2.7 4.8 9.6-5.5v-2.4l-4.6 2.7-22.8-40.4h-9.2L37 46.1l1.2 2.1 5.7-3.2 12.7 22.8h-.1c-4-3-9.4-3.4-13.7-1-8.7 4.8-9.9 16.2-6.3 22.5 1.5 2.6 3.6 4.8 6.3 6.3H59c.2-.1.3-.2.5-.3 4.1-2.2 6.5-6.4 6.5-10.9m-21.9.6c-4.8-8.6-6.3-13.6-.1-17 5.4-2.9 12.2-1 15.3 4.2l4.1 7.4c3.1 5.2.5 11.4-4.4 14.1-6.8 4-9.6.8-14.9-8.7" class="st2"/>
  <path d="M120.6 89.5h-.2c-2 4.1-6.1 6.8-10.7 6.9-10.1 0-16.8-8.5-16.8-18 0-8 6.5-18 16.2-18 5.8 0 9.8 4.5 11.2 8.3h.2v-24H114v-1.3h13.4v50.8h5.7v1.3h-12.5v-6zm0-15.2c0-5.9-4.7-12.7-11.4-12.7-7.2 0-8.3 5.7-8.3 16.8 0 12.2 1 16.8 9 16.8 6.1-.1 11-5.1 10.9-11.3v-.1l-.2-9.5zm43.1 16.9c0 1.5.3 3.6 2.4 3.6 1.9 0 3.1-1.5 4.2-3.2l.9.6c-1.3 2.8-4.1 4.5-7.2 4.4-3.9 0-6.5-2.2-7.2-5h-.2c-2.7 3.7-6.4 5-11.8 5-6.4 0-10.1-3.1-10.1-8.7 0-9.1 12.2-11.4 20.6-11.4h1.5V66.4c0-3.9-3.6-4.8-6.6-4.8-2.3 0-7.9.9-7.9 3.9 0 2 2.7 1.1 2.7 4.8 0 1.9-1.7 3.5-3.6 3.4h-.2c-2.2 0-3.6-1.8-3.6-4.6 0-4.1 4.4-8.7 12.6-8.7 6.2 0 13.6 3.1 13.6 9.4v21.4zm-8.2-13.5c-5.9 0-13.4.2-13.4 8.9 0 4.6.7 8 5.9 8 6.1 0 8.8-4.6 8.8-6.2V77.7h-1.3z" class="st3"/>
  <path d="M176.4 44.8h-6.5v-1.3h6.5c2.6 0 4.9-.1 6.8 0v50.8h6.1v1.3h-18.8v-1.3h5.9V44.8zm44.8 8.6c2.3 0 4.1-1.8 4.1-4.1s-1.8-4.1-4.1-4.1-4.1 1.8-4.1 4.1c0 2.2 1.8 4.1 4 4.1h.1" class="st3"/>
  <path d="M244.8 94.2V43.5h-13.4v1.3h6.5v49.5h-13.4v-34c-1.6 1.6-4.2 1.8-6.8 1.8h-15.5V50.8h-1c-1.3 8-4.5 11.6-12.9 11.4v1.3h7.1v25.8c0 5.7 4.4 7.3 8.5 7.3 4 .1 7.7-2.4 9-6.2l-1.3-.3c-.5 1.3-2.8 5.1-6.1 5.1-2 0-3.4-1.1-3.4-4.4V63.4h15.5v30.8h-6.5v1.3h40v-1.3h-6.3zm15.7-11.3c-.1 5.7.7 12.3 8.3 12.3 6.8 0 11.8-4.6 13-11.2h1.3c-1.3 7.4-6.8 12.6-14.4 12.6-9.5 0-16.2-7.4-16.2-18 0-7.9 6.4-18 15.3-18 9.6 0 14.5 10.8 14.5 14.2 0 .4-.2.7-.6.7h-21.3l.1 7.4zm14.1-11.2c0-5.2-1.3-10.1-6.7-10.1-5.7 0-7.4 4.8-7.4 10.1v2.2h13.6c.3 0 .5-.1.5-.4v-1.8zm8.7-10c-.1-1.6 1.1-3 2.8-3.1 1.6-.1 3 1.1 3.1 2.8v.4c.1 1.6-1.1 3-2.8 3.1-1.6.1-3-1.1-3.1-2.8v-.4m3 3.7c2 0 3.7-1.6 3.7-3.6v-.1c0-2-1.7-3.7-3.7-3.7s-3.7 1.6-3.7 3.6v.1c-.1 1.9 1.4 3.6 3.4 3.7h.3m-.8-3.4h.7l1.1 1.8h.7l-1.2-1.9c.6 0 1.1-.5 1.1-1.1v-.1c0-.8-.5-1.2-1.5-1.2h-1.5v4.2h.6V62zm0-.6v-1.3h.9c.5 0 .9.1.9.6s-.5.7-1 .7h-.8z" class="st3"/>
</svg>
