<svg xmlns="http://www.w3.org/2000/svg" viewBox="0 0 310 140"><defs><style>.a{fill:none;}.b{fill:#cfab7a;}.c{fill:#231f20;}</style></defs><title>Dreamweaver_orig_t</title><rect class="a" width="310" height="140"/><path class="b" d="M136.15,81.21A117.46,117.46,0,0,1,104.72,93a122.2,122.2,0,0,1-26.83,3.15,83.4,83.4,0,0,1-18-1.82C47.06,91.49,39,85.57,37.19,77.69a.67.67,0,1,1,1.31-.3C42,92.75,71.57,99.18,104.42,91.71a118.32,118.32,0,0,0,29-10.5m15.52,0c-10,8.6-25.48,15.84-43,19.83a122.2,122.2,0,0,1-26.83,3.15,83.26,83.26,0,0,1-18-1.82c-12.87-2.86-20.94-8.78-22.74-16.66a.67.67,0,0,1,1.31-.3c3.49,15.36,33.06,21.78,65.92,14.32,16.66-3.78,31.41-10.51,41.24-18.52m12.05,0c-9,9.4-27,20.81-49.23,26.66A119.89,119.89,0,0,1,79.45,112c-12.08,0-22.61-2.27-30-6.74-5-3-8.23-7-9.25-11.55a.67.67,0,1,1,1.31-.3c1,4.21,3.86,7.81,8.64,10.7,12.6,7.64,35.82,8.6,59.15,2.45C130.56,101,147.9,90.27,157,81.21"/><path class="b" d="M172.87,48.3C181.68,40.41,194.94,34,210,30.54c14.45-3.28,28.73-3.38,40.2-.28s19,9.2,20.77,17.06a.63.63,0,0,1-1.24.28c-1.68-7.38-8.73-13.1-19.87-16.12s-25.33-2.95-39.58.29S183.41,41,174.79,48.3m11.12,0a96.83,96.83,0,0,1,24.7-9.15c14.45-3.28,28.73-3.38,40.2-.28s19,9.2,20.77,17.06a.63.63,0,0,1-1.24.28c-1.68-7.38-8.73-13.1-19.87-16.12s-25.33-2.95-39.59.29a97.21,97.21,0,0,0-22.28,7.92m16.2.71q3.44-1,7-1.86c14.45-3.28,28.73-3.38,40.19-.28s19,9.2,20.77,17.06a.63.63,0,0,1-1.24.28c-1.68-7.38-8.73-13.1-19.86-16.12s-25.33-2.95-39.58.29q-3.74.85-7.31,1.94"/><path class="c" d="M53.36,78.47a17.12,17.12,0,0,0,4.06.55c9.39,0,13.4-11.35,13.4-19,0-4.65-1.09-8-6.47-8a6.91,6.91,0,0,0-1.91.27Zm-10.48,1c4-.27,4.83-2.37,5.56-4.47,2-5.61,4.65-13.17,6.43-18.51a12.15,12.15,0,0,0,.69-2.87c0-.78-.5-1.09-4-2l.36-1c1.83.09,3.6.18,5.43.18,2,0,5.38-.46,8.75-.46,6.2,0,11.12,1.91,11.12,10.07,0,10.71-7.66,20.19-20.06,20.19-1.69,0-3.47-.18-5.15-.18H42.56Z"/><path class="c" d="M196.83,63.13c-1.75,0-3.38,4.1-4,5.43,3.8-1.21,4.94-3,4.94-4.71,0-.53-.49-.72-1-.72m2.51-2c1.59,0,2.62.76,2.62,2.39,0,3.49-6.65,5.55-9.46,5.92a17.86,17.86,0,0,0-.27,2c0,2.05,1.22,2.81,3.15,2.81,3.15,0,5.09-2.58,5.55-2.58.11,0,.15.12.15.27,0,.53-3.91,4.52-8.89,4.52-2.66,0-4.67-1-4.67-4,0-5.39,7.22-11.36,11.82-11.36"/><path class="c" d="M208.45,73.91c3.23,0,5.7-6.12,6.5-8.66-.34-1.44-2-1.9-3.42-1.9-1.9,2.05-4.6,5.81-4.6,8.7,0,1.18.3,1.86,1.52,1.86m9.08-4.22a10.05,10.05,0,0,0-.8,3.46c0,.83,1,1.06,1.56,1.06,1.86,0,3-1.86,3.38-1.86.19,0,.31.11.31.34s-.72.95-1,1.18a8.81,8.81,0,0,1-5.62,2.62,5.1,5.1,0,0,1-4-1.6l1.9-3.84-.08,0c-1.56,2-5.17,5.47-7.83,5.47-1.9,0-3.53-.91-3.53-3,0-6.46,9.88-12.34,11.85-12.34A2.78,2.78,0,0,1,216,62.59h.08l.19-1h4.4Z"/><path class="c" d="M228.36,74.64c-.84.72-2,1.86-2.43,1.86-.23,0-.3-.11-.3-.49,0-2.09-1.48-6.42-1.48-8.17,0-3.42,3.27-6.69,6-6.69.08,0,.11,0,.11.15,0,.49-1.82,1.1-1.82,4.1,0,2.51.95,5,.95,7.48,1.79-1.67,4.07-3.49,4.07-6.15,0-1.56-.92-2.7-.92-3.68,0-1.29.92-1.9,2.17-1.9a2.69,2.69,0,0,1,2.62,3c0,2.58-2.74,5.24-4.29,6.57Z"/><path class="c" d="M246.78,63.13c-1.75,0-3.38,4.1-4,5.43,3.8-1.21,4.94-3,4.94-4.71,0-.53-.49-.72-1-.72m2.51-2c1.59,0,2.62.76,2.62,2.39,0,3.49-6.65,5.55-9.46,5.92a17.86,17.86,0,0,0-.27,2c0,2.05,1.22,2.81,3.15,2.81,3.15,0,5.09-2.58,5.55-2.58.11,0,.15.12.15.27,0,.53-3.91,4.52-8.89,4.52-2.66,0-4.67-1-4.67-4,0-5.39,7.22-11.36,11.81-11.36"/><path class="c" d="M257,61.61h4.71l-2.39,5.66.07.08c1.22-1.94,3.92-6.19,6.5-6.19a2.43,2.43,0,0,1,2.43,2.54c0,1.37-.95,3.15-2.51,3.15s-1.94-.87-1.94-2.24a1.32,1.32,0,0,0-.8-.19c-2,0-3.5,4-4.18,5.28A60.22,60.22,0,0,0,256.5,76h-4.37Z"/><path class="c" d="M80.17,61.61h4.71l-2.39,5.66.08.08c1.21-1.94,3.91-6.19,6.49-6.19a2.43,2.43,0,0,1,2.43,2.54c0,1.37-1,3.15-2.51,3.15S87,66,87,64.61a1.31,1.31,0,0,0-.8-.19c-2,0-3.5,4-4.18,5.28A60.15,60.15,0,0,0,79.72,76H75.35Z"/><path class="c" d="M100.23,63.13c-1.75,0-3.38,4.1-4,5.43,3.8-1.21,4.94-3,4.94-4.71,0-.53-.49-.72-.95-.72m2.51-2c1.6,0,2.62.76,2.62,2.39,0,3.49-6.65,5.55-9.46,5.92a18.35,18.35,0,0,0-.27,2c0,2.05,1.21,2.81,3.15,2.81,3.15,0,5.09-2.58,5.55-2.58.11,0,.15.12.15.27,0,.53-3.91,4.52-8.89,4.52-2.66,0-4.67-1-4.67-4,0-5.39,7.22-11.36,11.81-11.36"/><path class="c" d="M111.85,73.91c3.23,0,5.7-6.12,6.5-8.66-.34-1.44-2-1.9-3.42-1.9-1.9,2.05-4.6,5.81-4.6,8.7,0,1.18.3,1.86,1.52,1.86m9.08-4.22a10.05,10.05,0,0,0-.8,3.46c0,.83.95,1.06,1.56,1.06,1.86,0,3-1.86,3.38-1.86.19,0,.3.11.3.34s-.72.95-.95,1.18a8.82,8.82,0,0,1-5.62,2.62,5.1,5.1,0,0,1-4-1.6l1.9-3.84-.07,0c-1.56,2-5.17,5.47-7.83,5.47-1.9,0-3.53-.91-3.53-3,0-6.46,9.88-12.34,11.85-12.34a2.78,2.78,0,0,1,2.24,1.44h.08l.19-1h4.41Z"/><path class="c" d="M134.87,61.61l-2.7,6.15h.11c1.71-2.81,4.4-6.61,8.09-6.61,1.37,0,3,.49,3,2.13,0,1.29-1.06,3.34-1.48,4.63L142,68c1.79-2.73,4.71-6.84,8.32-6.84,1.37,0,3,.61,3,2.24,0,1.94-3.15,7.6-3.15,9.27,0,1,.57,1.41,1.59,1.41,2.24,0,2.73-1.82,3.34-1.82.15,0,.23.08.23.27,0,.72-3.11,4-6.38,4-1.63,0-3.5-.8-3.5-2.66,0-1.18,2.77-7.67,2.77-8.89,0-.76-.49-1-1.18-1-1.44,0-2.73,1.86-3.46,2.92-2,2.92-2.81,5.74-3.91,9.15h-4.44c.61-2.32,3.5-9.69,3.5-11.47,0-.76-.61-1-1.25-1-2.54,0-4.86,5.09-5.58,7.29L130.12,76h-4.41l4.71-14.43Z"/><path class="c" d="M127.06,75.06h2.35l1.49-4.49c0-.1.28-.84.71-1.83h-.94l2.7-6.15h-2.23Zm9.43,0h2.41a41.94,41.94,0,0,1,2.42-6.34l-.54-.54.19-.57c.14-.43.34-.92.55-1.43a10.24,10.24,0,0,0,.89-2.9c0-1-1.41-1.15-2-1.15a4.75,4.75,0,0,0-2.19.57,1.85,1.85,0,0,1,1.47,1.87c0,1.21-.93,4-2.25,7.84-.33,1-.65,1.89-.9,2.65M147.6,63a1.84,1.84,0,0,1,1.55,1.91c0,.71-.47,2.08-1.46,4.83a32.68,32.68,0,0,0-1.31,4.06c0,1.32,1.64,1.67,2.52,1.67a5.33,5.33,0,0,0,2.18-.52,2.19,2.19,0,0,1-1.94-2.34c0-.94.59-2.4,1.56-4.71a19.76,19.76,0,0,0,1.59-4.56c0-1.2-1.65-1.26-2-1.26a4.91,4.91,0,0,0-2.69.91"/><path class="c" d="M180.12,61.15l.18,0c1.09-1.64,5.7-6.56,5.7-8.43,0-1.23-1.69-1.46-2.6-1.46-1.73,0-3,.5-3,2.42ZM193,50c1.91.09,3.78.18,5.7.18,1.41,0,2.78-.09,4.19-.18l-.27,1c-6.11,6.56-18.05,20.33-27.17,29.72L174,79.84l.41-10.21-.09-.09L164.17,80.75l-1.46-.91L162.53,57a17.7,17.7,0,0,0-.27-4.15c-.36-.77-2.32-1.59-3.46-1.82l.27-1c2.19.09,4.38.18,6.57.18s4.24-.09,6.38-.18l-.32,1c-1.41.36-3.33,1.18-3.33,2.92,0,6.75-.09,13.54-.09,20.28l6.2-7c.14-4.42.5-8.8.5-13.22,0-2.19-.55-2.92-1.87-3l.32-1c3.19.09,6.43.18,8.84.18s6.29-.09,9.07-.18L191,51,180.17,63V74l.09.09c2-2.23,16.41-18.87,16.41-21.29,0-1-2.23-1.23-4-1.78Z"/><path class="c" d="M134.87,61.61l-2.7,6.15h.11c1.71-2.81,4.4-6.61,8.09-6.61,1.37,0,3,.49,3,2.13,0,1.29-1.06,3.34-1.48,4.63L142,68c1.79-2.73,4.71-6.84,8.32-6.84,1.37,0,3,.61,3,2.24,0,1.94-3.15,7.6-3.15,9.27,0,1,.57,1.41,1.59,1.41,2.24,0,2.73-1.82,3.34-1.82.15,0,.23.08.23.27,0,.72-3.11,4-6.38,4-1.63,0-3.5-.8-3.5-2.66,0-1.18,2.77-7.67,2.77-8.89,0-.76-.49-1-1.18-1-1.44,0-2.73,1.86-3.46,2.92-2,2.92-2.81,5.74-3.91,9.15h-4.44c.61-2.32,3.5-9.69,3.5-11.47,0-.76-.61-1-1.25-1-2.54,0-4.86,5.09-5.58,7.29L130.12,76h-4.41l4.71-14.43Z"/><path class="c" d="M180.12,61.15l.18,0c1.09-1.64,5.7-6.56,5.7-8.43,0-1.23-1.69-1.46-2.6-1.46-1.73,0-3,.5-3,2.42ZM193,50c1.91.09,3.78.18,5.7.18,1.41,0,2.78-.09,4.19-.18l-.27,1c-6.11,6.56-18.05,20.33-27.17,29.72L174,79.84l.41-10.21-.09-.09L164.17,80.75l-1.46-.91L162.53,57a17.7,17.7,0,0,0-.27-4.15c-.36-.77-2.32-1.59-3.46-1.82l.27-1c2.19.09,4.38.18,6.57.18s4.24-.09,6.38-.18l-.32,1c-1.41.36-3.33,1.18-3.33,2.92,0,6.75-.09,13.54-.09,20.28l6.2-7c.14-4.42.5-8.8.5-13.22,0-2.19-.55-2.92-1.87-3l.32-1c3.19.09,6.43.18,8.84.18s6.29-.09,9.07-.18L191,51,180.17,63V74l.09.09c2-2.23,16.41-18.87,16.41-21.29,0-1-2.23-1.23-4-1.78Z"/></svg>