<svg xmlns="http://www.w3.org/2000/svg" viewBox="0 0 310 140"><defs><style>.a{fill:none;}</style></defs><title>Mannington_orig_t</title><rect class="a" width="310" height="140"/><path d="M54.34,61.95h4.6l8.89,20.47h.09l8.94-20.51h4.51V88.05H78.29V66.15H78.2L68.82,88.09H66.94L57.56,66.15h-.09V88.09H54.38V61.95Z"/><path d="M94.16,61.95h2.9l11.13,26.14h-3.62l-2.64-6.44H88.84l-2.68,6.44H82.67Zm1.39,4h-.09L90,78.8h10.68Z"/><path d="M109.49,61.95h3.93l15.15,21.72h.09V61.95h3.08V88.09h-3.93L112.66,66.37h-.09V88.09h-3.08V61.95Z"/><path d="M135.27,61.95h3.93l15.15,21.72h.09V61.95h3.08V88.09H153.6L138.45,66.37h-.09V88.09h-3.08Z"/><path d="M161.82,61.95h3.08V88.09h-3.08Z"/><path d="M168.52,61.95h3.93l15.15,21.72h.09V61.95h3.08V88.09h-3.93L171.7,66.37h-.09V88.09h-3.08Z"/><path d="M216.57,86.31a17.06,17.06,0,0,1-4.74,1.83,24,24,0,0,1-5.05.58,15.21,15.21,0,0,1-5.63-1,13.37,13.37,0,0,1-4.42-2.82,12.75,12.75,0,0,1-2.9-4.34,15,15,0,0,1-1-5.59,14.37,14.37,0,0,1,1.07-5.63,13,13,0,0,1,3-4.34,13.19,13.19,0,0,1,4.47-2.77,14.83,14.83,0,0,1,5.5-1,16.46,16.46,0,0,1,5,.76A10.61,10.61,0,0,1,216,64.68l-2.32,2.46a9.58,9.58,0,0,0-7.11-3,10.45,10.45,0,0,0-4.16.8,10.06,10.06,0,0,0-5.59,5.68,12.08,12.08,0,0,0,0,8.67A10.21,10.21,0,0,0,202.49,85a11.74,11.74,0,0,0,4.38.8,14.52,14.52,0,0,0,3.31-.4,13.28,13.28,0,0,0,3.17-1.12v-8h-6V73.48h9.12V86.31Z"/><path d="M238.42,64.81H229.8V88.09h-3.08V64.81h-8.63V61.95h20.38v2.86Z"/><path d="M251.29,88.72a14.51,14.51,0,0,1-5.5-1,13.56,13.56,0,0,1-4.34-2.86,13.09,13.09,0,0,1-2.86-4.34,15.21,15.21,0,0,1,0-11,12,12,0,0,1,2.86-4.34,13.09,13.09,0,0,1,4.34-2.86,15.21,15.21,0,0,1,11,0,13.56,13.56,0,0,1,4.34,2.86A13.82,13.82,0,0,1,264,69.5a15.21,15.21,0,0,1,0,11,12,12,0,0,1-2.86,4.34,12.65,12.65,0,0,1-4.34,2.86A13.7,13.7,0,0,1,251.29,88.72Zm0-2.86a10,10,0,0,0,7.46-3.17,11.78,11.78,0,0,0,2.15-3.44,11.94,11.94,0,0,0,.76-4.25,12.12,12.12,0,0,0-.76-4.25A10.29,10.29,0,0,0,255.5,65a10,10,0,0,0-4.2-.85,10,10,0,0,0-7.46,3.17,11.78,11.78,0,0,0-2.15,3.44,11.94,11.94,0,0,0-.76,4.25,12.12,12.12,0,0,0,.76,4.25,10.16,10.16,0,0,0,2.15,3.44A10.6,10.6,0,0,0,247.09,85,10.09,10.09,0,0,0,251.29,85.86Z"/><path d="M267.79,61.95h3.93l15.11,21.68h.09V61.95H290V88.09h-3.93L270.91,66.37h-.09V88.09h-3.08V61.95Z"/><path d="M293.08,84.88a3.24,3.24,0,0,1,.31-1.47,3,3,0,0,1,.8-1.16,4,4,0,0,1,1.16-.76,3.95,3.95,0,0,1,2.86,0,3.49,3.49,0,0,1,1.16.76,3.6,3.6,0,0,1,.8,1.16,4,4,0,0,1,.31,1.47,3.24,3.24,0,0,1-.31,1.47,3,3,0,0,1-.8,1.16,4,4,0,0,1-1.16.76,3.95,3.95,0,0,1-2.86,0,3.49,3.49,0,0,1-1.16-.76,3.6,3.6,0,0,1-.8-1.16A3.24,3.24,0,0,1,293.08,84.88Zm.63,0a3.88,3.88,0,0,0,.22,1.25,3.09,3.09,0,0,0,.63,1,3.58,3.58,0,0,0,.94.67,2.65,2.65,0,0,0,1.21.22,3.16,3.16,0,0,0,1.16-.22,3.58,3.58,0,0,0,.94-.67,2.84,2.84,0,0,0,.63-1,3,3,0,0,0,.22-1.25,3.88,3.88,0,0,0-.22-1.25,3.09,3.09,0,0,0-.63-1,3.58,3.58,0,0,0-.94-.67,2.57,2.57,0,0,0-1.16-.22,3.83,3.83,0,0,0-1.21.22,3.58,3.58,0,0,0-.94.67,2.84,2.84,0,0,0-.63,1A3.88,3.88,0,0,0,293.71,84.88Zm1.61-2.15h1.61c1,0,1.52.4,1.52,1.21a1,1,0,0,1-.31.85,1.61,1.61,0,0,1-.8.31L298.58,87h-.72l-1.16-1.83H296V87h-.67Zm.67,1.92h1.12a.84.84,0,0,0,.36-.09,1.18,1.18,0,0,0,.27-.22c.09-.09.09-.22.09-.4a.84.84,0,0,0-.09-.36.54.54,0,0,0-.22-.22.65.65,0,0,0-.31-.09H296v1.39Z"/><path d="M24.44,88c1.25-2,2.9-3.66,4.65-6.57,1.39-2.28.4-2.1-2.15-1.16a39.27,39.27,0,0,0-11.44,7V88Z"/><path d="M41.73,83.8a7.77,7.77,0,0,0-.85-.45,3.26,3.26,0,0,0-3.35-.22,6.08,6.08,0,0,0-2.59,2.5c-.63,1-2.1.54-1.34-.89.45-.8,1.25-1.43,1.52-2.28s-.22-1-.8-.67a19.25,19.25,0,0,0-3.89,2.73c-.31.36-.89.13-.8-.22s.13-.72.22-1.07l-4.16,4.69h16V83.8Z"/><path d="M15.5,85.59c3.35-2.59,7-5.54,11.44-6.93,2.5-.8,6.53-1.79,5.72.45-.45,1.16-.54.63-2.15,3.22,1.25-.67,3-1.79,4.38-2.37s2.77-.72,1.88.89c-.31.58-.4,1.34-.72,1.92,3.58-1.88,4.56-.89,5.68.09V61.55H15.5v24Z"/></svg>