<?xml version="1.0" encoding="utf-8"?>
<!-- Generator: Adobe Illustrator 21.1.0, SVG Export Plug-In . SVG Version: 6.00 Build 0)  -->
<svg version="1.1" id="Layer_1" xmlns="http://www.w3.org/2000/svg" xmlns:xlink="http://www.w3.org/1999/xlink" x="0px" y="0px"
	 viewBox="0 0 310 140" style="enable-background:new 0 0 310 140;" xml:space="preserve">
<style type="text/css">
	.st0{fill:none;}
	.st1{fill:#E21836;}
	.st2{fill:#231F20;}
</style>
<title>Mohawk_orig_t</title>
<rect x="19" class="st0" width="272" height="140"/>
<path class="st1" d="M186.8,41.8l-17.2,17c-0.9,0.9-2.1,1.5-3.4,1.5c-2.5,0-4.6-2-4.6-4.6l0,0v-9.2c0,2.5,2,4.6,4.5,4.6h0.1
	c1.3,0,2.5-0.6,3.4-1.5l17.2-17V41.8z"/>
<path class="st1" d="M171.4,46.2c0-2.5-2-4.6-4.5-4.6h-0.1c-1.3,0-2.5,0.6-3.4,1.5l-16,15.8c-0.9,0.9-2.1,1.5-3.4,1.5
	c-2.5,0-4.6-2-4.6-4.6l0,0v-9.2c0,2.5,2,4.6,4.6,4.6l0,0c1.3,0,2.5-0.6,3.4-1.5l16-15.9c0.9-0.9,2.1-1.5,3.4-1.5
	c2.5,0,4.6,2.1,4.6,4.6V46.2z"/>
<path class="st1" d="M149.1,46.2c0-2.5-2-4.6-4.6-4.6l0,0c-1.3,0-2.5,0.6-3.4,1.5l-17.5,17.2v-9.1l17.5-17.4c1.7-1.9,4.6-2,6.5-0.3
	c1,0.9,1.5,2.1,1.5,3.4V46.2z"/>
<path class="st2" d="M258,97h-15.6v-1c2.8-0.1,3.7-0.2,3.7-0.9s-0.3-1.1-1.1-2l-8.5-9.9l-1.2,1v8.6c0,2.7,1.6,2.8,4,3.1v1h-15.6v-1
	c2.5-0.2,4-0.5,4-3.1V71.4c0-2.4-1.5-2.9-3.3-3c-1.3,0.2-2.2,1.3-2.7,2.8l-9.3,26.4h-1.2L203.4,77h-0.2l-8.5,20.6h-1.3l-9.8-26.4
	c-0.8-2.2-1.2-2.6-3.2-2.9v-1H194v1c-1.6,0.1-2.9,0.2-2.9,1.9c0,0.5,0.1,1,0.4,1.5l5.5,15.8l5.5-13.4l-1.7-4.2
	c-0.4-1.1-1.1-1.5-3.3-1.6v-1H212v1c-2,0.1-3.3,0.2-3.3,1.7c0.1,0.8,0.3,1.6,0.6,2.4l5,14.5h0.1l5-14.9c0.3-0.6,0.4-1.2,0.4-1.9
	c0-1.9-1.6-1.9-3.2-2v-1h22.7v1c-2.5,0.2-4,0.4-4,4.1v9.4l10.1-9.5c1.3-1.2,1.6-1.6,1.6-2.4c0-1-0.5-1.3-3.9-1.5v-1h13.5v1
	c-4.9,0.4-7.1,2.4-15,10l14.2,16.6c0.5,0.6,1.4,1,2.2,0.9L258,97L258,97z"/>
<path class="st2" d="M93.9,97H78.6v-1c2.7-0.3,4-0.5,4-3.4v-22h-0.1L71,97h-1.2L58.2,71.2h-0.1v20.4c0,3.1,0.9,4.2,4.7,4.4v1H52v-1
	c3.7-0.3,4.2-1,4.2-3.6V71.6c0-2.3-0.7-2.9-4-3.1v-1.2h11.7L73,88l9.3-20.7H94v1.2c-2.6,0.1-4.2,0.2-4.2,4.1v19.3
	c0,3.5,1.1,3.6,4.2,4.1L93.9,97L93.9,97z"/>
<path class="st2" d="M116.5,82.2c0-6.3-1.7-14.1-8.2-14.1s-8.2,7.7-8.2,14.1c0,3.8,0.4,14.2,8.2,14.2S116.5,86,116.5,82.2
	 M124.6,82.2c0,9.3-6.9,15.6-16.3,15.6S92,91.4,92,82.2c0-9.5,7.4-15.5,16.3-15.5S124.6,72.7,124.6,82.2"/>
<path class="st2" d="M174.4,86.6l-4.8-10.7l-4.3,10.7H174.4z M188.5,97h-15.1v-1c2.9-0.2,3.8-0.2,3.8-1.7c0-1.2-1.5-4.4-2.2-5.8
	h-10.4c-1.2,3.1-2,5-2,5.7c0,1.6,2.2,1.7,3.8,1.9v1h-24.5v-1c2.5-0.2,4.2-0.5,4.2-3.1V82.7h-11.2v10.1c0,2.7,1.7,2.9,4.2,3.1v1
	h-15.6v-1c2.5-0.3,3.9-0.6,3.9-3.1V71.4c0-2.8-2.1-2.9-3.9-3.1v-1h15.6v1c-2.1,0.1-4.2,0.2-4.2,3.1v9.1H146v-9.1
	c0-2.9-2.1-3-4.2-3.1v-1h15.8v1c-2.1,0.1-4.2,0.4-4.2,3.1v21.3c0,2.3,1.3,3,3.2,3c1.2,0,2.6,0,4.8-5l10.3-24.1h1.2l10.4,23
	c2.1,4.7,2.8,6.3,5,6.2V97H188.5z"/>
<path class="st2" d="M254,73h0.3c0.3,0,0.5-0.3,0.5-0.6c0-0.4-0.2-0.5-0.5-0.5H254V73z M253.2,71.7h1.2c0.4,0,0.8,0.2,0.8,0.6
	c0,0.3-0.2,0.6-0.5,0.7l0.3,0.6c0.2,0.2,0.4,0.5,0.5,0.6v0.1h-0.4c-0.2,0-0.4-0.5-0.8-1.1H254v0.7c0,0.3,0,0.3,0.3,0.3v0.1h-1.1
	v-0.1c0.3,0,0.3,0,0.3-0.3v-1.6c0-0.3,0-0.3-0.3-0.3V71.7z M254.3,71c-1.2,0-2.1,0.9-2.1,2.1s0.9,2.1,2.1,2.1c1.1-0.1,2-1,1.9-2.1
	l0,0c0.1-1-0.6-2-1.7-2.1C254.5,71,254.4,71,254.3,71 M254.3,75.4c-1.3,0.1-2.4-1-2.5-2.3s1-2.4,2.3-2.5s2.4,1,2.5,2.3V73
	C256.6,74.3,255.6,75.4,254.3,75.4"/>
</svg>
