<svg xmlns="http://www.w3.org/2000/svg" viewBox="0 0 310 140"><defs><style>.a,.c{fill:none;}.b{fill:#00429b;}.c,.d{stroke:#fff;stroke-width:0.44px;}.d,.e{fill:#eb008b;}.f{fill:#fff;}</style></defs><title>Quickstep_orig_t</title><rect class="a" width="310" height="140"/><rect class="b" x="64.8" y="28.5" width="180.81" height="83"/><rect class="c" x="138.57" y="52.02" width="32.84" height="15.64"/><rect class="d" x="131.84" y="57.46" width="18.91" height="4.83" transform="translate(1.89 124.03) rotate(-47.68)"/><rect class="d" x="144.44" y="55.78" width="18.9" height="4.83" transform="translate(7.26 132.81) rotate(-47.68)"/><rect class="d" x="157.45" y="53.6" width="18.91" height="4.83" transform="translate(13.12 141.71) rotate(-47.68)"/><path class="e" d="M169.56,82.72a2.09,2.09,0,0,1-2.13,2.13,2.19,2.19,0,0,1-2.13-2.13,2.09,2.09,0,0,1,2.13-2.13A2.18,2.18,0,0,1,169.56,82.72Z"/><path class="f" d="M121.52,73.2v10c0,2.27-.14,4.55-1.85,6.25a8.55,8.55,0,0,1-5.83,2,8.32,8.32,0,0,1-5.83-2c-1.71-1.71-1.85-4-1.85-6.25v-10h4.55v9.24c0,2.27.14,4.83,3.13,4.83S117,84.71,117,82.44V73.2Z"/><path class="f" d="M129.05,91H124.5V73.2h4.55Z"/><path class="f" d="M144.69,79.17a5,5,0,0,0-4-2,4.83,4.83,0,0,0,.14,9.67,5.29,5.29,0,0,0,4-1.85v5.54a14.22,14.22,0,0,1-4.12.85A10.57,10.57,0,0,1,134,88.83a8.52,8.52,0,0,1-2.84-6.68,8.91,8.91,0,0,1,2.56-6.4,9.25,9.25,0,0,1,6.68-2.84,10.2,10.2,0,0,1,4.12.85v5.4Z"/><path class="f" d="M157.76,73.2h5.69l-7,8.39,7.68,9.24h-6l-6-7.68h0v7.68h-4.55V73.2h4.55v7.25h0Z"/><path class="f" d="M182.5,77.75a4.89,4.89,0,0,0-3-1.14c-.85,0-2,.43-2,1.42s1.28,1.42,2,1.71l1.14.28c2.42.71,4.41,2,4.41,4.83a5.82,5.82,0,0,1-1.85,4.69,8.11,8.11,0,0,1-5,1.71,10.9,10.9,0,0,1-6.25-2l2-3.7a6.49,6.49,0,0,0,4.12,1.85c1.14,0,2.27-.57,2.27-1.85s-1.85-1.71-2.84-2c-2.84-.85-4.83-1.56-4.83-5a5.78,5.78,0,0,1,6.11-6,12.34,12.34,0,0,1,5.54,1.42Z"/><path class="f" d="M194.3,91H189.6V77.18h-3.84V73.34H198v3.84h-3.84V91Z"/><path class="f" d="M204.25,77.18v3h5.12V84h-5.12v3h5.4v3.84H199.55V73.2h10.09V77h-5.4Z"/><path class="f" d="M100.62,92,99.2,90.26a9,9,0,0,1-4.83,1.14,9.4,9.4,0,0,1-9.81-9.81c0-5.4,4.69-9.1,9.81-9.1,5.54,0,9.81,3.7,9.81,9.52a10.24,10.24,0,0,1-2.27,6.25l3,3Zm-2.13-7.25a4.26,4.26,0,0,0,.85-2.56,5,5,0,0,0-10-.28,5.1,5.1,0,0,0,5,5.26,5.05,5.05,0,0,0,1.42-.28L92.95,84l4.26-.57Z"/><path class="f" d="M212.63,73.2h7c3.84,0,6.4,1.71,6.4,5.83s-2.27,6-6.25,6h-2.56v5.83h-4.55Zm4.55,8.1h.71c1.71,0,3.27,0,3.27-2.13s-1.56-2.27-3.27-2.27h-.71Z"/><path class="f" d="M229.55,75.33a2.13,2.13,0,1,1,2.13,2.13A2.19,2.19,0,0,1,229.55,75.33Zm3.84,0a1.49,1.49,0,0,0-1.56-1.56,1.58,1.58,0,0,0-1.56,1.56,1.56,1.56,0,1,0,3.13,0Zm-.71,1.14h-.43l-.43-1h-.28v1h-.71V74.34h1c.57,0,.85.14.85.71s-.14.57-.57.57ZM232,75.19c.28,0,.43,0,.43-.28s-.28-.28-.43-.28h-.43v.57Z"/></svg>