<?xml version="1.0" encoding="utf-8"?>
<!-- Generator: Adobe Illustrator 21.1.0, SVG Export Plug-In . SVG Version: 6.00 Build 0)  -->
<svg version="1.1" id="Layer_1" xmlns="http://www.w3.org/2000/svg" xmlns:xlink="http://www.w3.org/1999/xlink" x="0px" y="0px"
	 viewBox="0 0 500.7 220" style="enable-background:new 0 0 500.7 220;" xml:space="preserve">
<g>
	<g>
		<path d="M353.5,111.3v-14c-0.4,0.7-1,1.1-1.6,1.5c-2.3,1.2-5.1,2.5-5.1,2.5c-3,1.5-5.5,2.8-7.7,4.1c-3.4,1.8-6.3,4-7.8,6.8
			c0,0-0.1,0.3-0.2,0.4c-1.4,3.3-1.2,6.5,1.4,9.4c0,0,1.8,2,4.9,3c1.4,0.4,3,0.6,4.8,0.4C342.1,125.3,353.3,124,353.5,111.3
			L353.5,111.3z"/>
		<path d="M345.9,130.4h9.3c-0.9-3.2-1.5-6-1.7-6.9C352,127.1,348.9,129.1,345.9,130.4L345.9,130.4z"/>
		<polygon points="401.4,130.4 424,130.4 412.6,92.7 		"/>
		<path d="M286,80.2c-6.3,0.5-11.1,2.8-11.1,13.1V117c0,4.2,0,9,2.1,12l1,1.4h18.3V94.7C296.4,86,294.6,80.3,286,80.2L286,80.2z"/>
		<path d="M23.3,31.9v98.4h125.1c0,0-0.3-0.3-0.5-0.4C143.5,126.3,108,99,27.6,85.2c0-5,0-48.9,0-48.9c3.8,0,124.3,0,168.6,0
			c-12.8,42.8-35.6,42.9-47.9,94.1h47.9v-16.9l2.3,2.9c3.8,4.8,9,12,22.3,12c9.8,0,16.2-5.9,16.2-14c0-8.9-8.4-14-17.3-18.4
			c-9.9-4.8-20.1-10.6-20.1-22.6c0-7.1,3.1-12.3,7.8-15.9c2.6-2,5.7-3.6,9.3-4.7c4.5-1.4,9.8-2,15.8-2c1.8,0.1,4,0.3,6.3,0.7
			c3.5,0.7,6.9,1.9,9.8,3.4v10.8c-7-10-19.4-9.6-19.4-9.6c-4.4,0-14.8,2.1-14.8,12.6c0,7.8,8,12.7,16.5,16.8
			c9.8,4.7,21,10.8,21,23.5c0,10.5-5.9,17.7-16.1,21.4h23.8l1-1.4c2.1-3,2.1-7.8,2.1-12V60.9c0,0,0.3-9.9-5.5-12.6l17.8-2.6
			c0,0,0,33.8,0,34.3c2.7-2.9,7.7-6,16.4-6c11.3,0,17.3,5.7,17.3,16.6V117c0,4.2,0,9.1,1.9,12.1l0.8,1.3h15.3
			c-0.3-0.1-0.6-0.2-0.8-0.3c-4.7-2.2-7.9-7-7.9-12.5c0-1.5,0.2-3,0.7-4.4c0.4-1,0.8-2,1.4-3c3.9-7.1,17-11.3,24.7-14.6
			c1.7-0.7,3.6-1.5,4.9-2l0,0c2.2-0.9,3.7-2.8,3.8-5.3c0-0.9,0-3.6,0-3.6c-0.2-7.1-7.4-6.5-10-6.6c-4.5,0.1-6.9,1.5-8.4,3.4
			c-2.3,3.3-2.5,7.5-7.4,7.9c-0.1,0-0.1,0-0.2,0c-2.9,0-5.3-2.4-5.3-5.3c0-0.9,0.2-1.8,0.7-2.6c3.3-5.5,14-7.4,22.9-7.4
			c9.8,0,19.4,1.9,19.4,9.9v26.8c0,6.9-0.4,14.3,3.3,19.7h21.6l-13-43.8c-2.2-7.4-6-11.4-6-11.4s12.4,0,12.8,0c5.1,0.4,5.7,4,5.7,4
			l10,41.5l8.7-30.3c3.3-11-1.6-15.2-1.6-15.2h10.2c5.4,0.3,6.1,4.1,6.1,4.1l10.5,41.4l8.7-30.3c3.3-11-1.6-15.2-1.6-15.2h14.9
			c-5.5,4-7.7,12.7-7.7,12.7l-12.5,42.5h29.1V32L23.3,31.9L23.3,31.9z"/>
		<path d="M468.5,37.2c0-2.6,2.1-4.8,4.8-4.8c2.6,0,4.8,2.1,4.8,4.8S476,42,473.3,42C470.7,42,468.5,39.9,468.5,37.2z M477.3,37.2
			c0-2.3-1.7-4.1-4-4.1s-4,1.8-4,4.1c0,2.4,1.7,4.2,4,4.2S477.3,39.5,477.3,37.2z M475.7,39.9h-0.8l-1.5-2.5h-1.2v2.5h-0.7v-5.3h2.3
			c1.4,0,1.9,0.5,1.9,1.4c0,1-0.7,1.4-1.7,1.5L475.7,39.9z M473.2,36.9c0.8,0,1.9,0.1,1.9-1c0-0.8-0.7-0.9-1.3-0.9h-1.5v1.9H473.2z"
			/>
	</g>
	<g>
		<path d="M232.7,151.5h28.1v2.7h-25.1v16.3h22.6v2.7h-22.6v18.1h-3L232.7,151.5L232.7,151.5z"/>
		<path d="M268.6,151.5h3v37.1H295v2.7h-26.4V151.5z"/>
		<path d="M298.4,171.5v-0.1c0-10.9,8-20.6,20.1-20.6s20,9.6,20,20.5v0.1c0,10.9-8,20.6-20.1,20.6
			C306.4,192,298.4,182.4,298.4,171.5z M335.5,171.5v-0.1c0-9.9-7.2-17.9-17-17.9s-16.9,8-16.9,17.8v0.1c0,9.9,7.2,17.9,17,17.9
			S335.5,181.4,335.5,171.5z"/>
		<path d="M345.4,171.5v-0.1c0-10.9,8-20.6,20.1-20.6s20,9.6,20,20.5v0.1c0,10.9-8,20.6-20.1,20.6S345.4,182.4,345.4,171.5z
			 M382.5,171.5v-0.1c0-9.9-7.2-17.9-17-17.9s-16.9,8-16.9,17.8v0.1c0,9.9,7.2,17.9,17,17.9S382.5,181.4,382.5,171.5z"/>
		<path d="M394.2,151.5h16.7c4.9,0,8.8,1.5,11.2,3.9c1.9,1.9,3,4.6,3,7.4v0.1c0,6.7-5,10.5-11.7,11.4l13.2,17h-3.8l-12.7-16.5h-13
			v16.5h-3L394.2,151.5L394.2,151.5z M410.6,172.1c6.7,0,11.6-3.4,11.6-9.1v-0.1c0-5.4-4.2-8.7-11.4-8.7h-13.6v17.9L410.6,172.1
			L410.6,172.1z"/>
		<path d="M431.4,185.5l1.9-2.2c4.4,4,8.4,5.9,14.3,5.9c6,0,10.1-3.4,10.1-7.9v-0.1c0-4.2-2.2-6.7-11.3-8.5
			c-9.6-1.9-13.4-5.2-13.4-11.2v-0.1c0-5.9,5.4-10.5,12.8-10.5c5.8,0,9.6,1.6,13.7,4.8l-1.9,2.3c-3.8-3.2-7.5-4.5-11.9-4.5
			c-5.9,0-9.7,3.4-9.7,7.5v0.1c0,4.2,2.2,6.8,11.6,8.7c9.2,1.9,13.1,5.2,13.1,11v0.1c0,6.4-5.5,10.9-13.2,10.9
			C441.1,191.9,436.2,189.8,431.4,185.5z"/>
	</g>
</g>
</svg>
