<svg xmlns="http://www.w3.org/2000/svg" xmlns:xlink="http://www.w3.org/1999/xlink" viewBox="0 0 340 106.8">
  <defs>
    <style>
      .a{fill:none;}.b{clip-path:url(#a);}.c{fill:url(#b);}.d{clip-path:url(#c);}.e{clip-path:url(#d);}.f{clip-path:url(#e);}.g{fill:url(#f);}.h{clip-path:url(#g);}.i{clip-path:url(#h);}.j{clip-path:url(#i);}.k{fill:url(#j);}.l{clip-path:url(#k);}.m{clip-path:url(#l);}.n{clip-path:url(#m);}.o{fill:url(#n);}.p{clip-path:url(#o);}.q{clip-path:url(#p);}.r{clip-path:url(#q);}.s{fill:url(#r);}.t{clip-path:url(#s);}.u{clip-path:url(#t);}.v{clip-path:url(#u);}.w{fill:url(#v);}.x{clip-path:url(#w);}.y{clip-path:url(#x);}.z{clip-path:url(#y);}.aa{clip-path:url(#z);}.ab{clip-path:url(#aa);}.ac{clip-path:url(#ab);}.ad{clip-path:url(#ac);}.ae{fill:url(#ad);}.af{fill:#cf202e;}.ag{clip-path:url(#ae);}.ah{clip-path:url(#af);}.ai{clip-path:url(#ag);}.aj{fill:url(#ah);}.ak{clip-path:url(#ai);}.al{clip-path:url(#aj);}.am{clip-path:url(#ak);}.an{fill:url(#al);}.ao{clip-path:url(#am);}.ap{clip-path:url(#an);}.aq{clip-path:url(#ao);}.ar{clip-path:url(#ap);}.as{clip-path:url(#aq);}.at{fill:url(#ar);}.au{clip-path:url(#as);}.av{clip-path:url(#au);}.aw{clip-path:url(#aw);}.ax{fill:url(#ax);}.ay{clip-path:url(#ay);}.az{clip-path:url(#ba);}.ba{fill:url(#bb);}.bb{clip-path:url(#bc);}.bc{clip-path:url(#bd);}
    </style>
    <clipPath id="a"/>
    <linearGradient id="b" x1="-1218.22" x2="-1218.22" y1="77.85" y2="77.85" gradientTransform="matrix(0 10.9 10.9 0 -558.6 13374.3)" gradientUnits="userSpaceOnUse">
      <stop offset="0" stop-color="#fff"/>
      <stop offset=".09" stop-color="#f5f5f5"/>
      <stop offset=".23" stop-color="#dadada"/>
      <stop offset=".42" stop-color="#adadad"/>
      <stop offset=".64" stop-color="#707070"/>
      <stop offset=".9" stop-color="#222"/>
      <stop offset="1"/>
    </linearGradient>
    <clipPath id="c">
      <path d="M277.32 38.4l-8.08 15 12.25-7.53 12.13-7.47h-16.3z" class="a"/>
    </clipPath>
    <clipPath id="d">
      <path d="M269.24 38.4h24.37v15h-24.37z" class="a"/>
    </clipPath>
    <clipPath id="e"/>
    <linearGradient id="f" x1="-1218.62" x2="-1217.62" y1="77.65" y2="77.65" gradientTransform="matrix(0 11 11 0 -557.8 13386.5)" xlink:href="#b"/>
    <clipPath id="g">
      <path d="M269.24 23.4l8.08 15h16.3l-12.24-7.54-12.14-7.46z" class="a"/>
    </clipPath>
    <clipPath id="h">
      <path d="M269.24 23.4h24.37v15h-24.37z" class="a"/>
    </clipPath>
    <clipPath id="i">
      <path d="M269.24 53.4l8.08-15-8.08 15z" class="a"/>
    </clipPath>
    <linearGradient id="j" x1="-1224.31" x2="-1222.94" y1="17.64" y2="17.64" gradientTransform="matrix(0 21.9 21.9 0 -113.5 26874.3)" xlink:href="#b"/>
    <clipPath id="k">
      <path d="M269.24 53.4l8.08-15-8.08-15v30z" class="a"/>
    </clipPath>
    <clipPath id="l">
      <path d="M269.24 23.4h8.08v30h-8.08z" class="a"/>
    </clipPath>
    <clipPath id="m">
      <path d="M293.62 68.4l-12.24 7.54 12.24-7.54z" class="a"/>
    </clipPath>
    <linearGradient id="n" x1="-1217.49" x2="-1216.12" y1="77.29" y2="77.29" gradientTransform="matrix(0 10.9 10.9 0 -558.6 13396.2)" xlink:href="#b"/>
    <clipPath id="o">
      <path d="M277.32 68.4l-8.08 15 12.14-7.46 12.24-7.54h-16.3z" class="a"/>
    </clipPath>
    <clipPath id="p">
      <path d="M269.24 68.4h24.37v15h-24.37z" class="a"/>
    </clipPath>
    <clipPath id="q">
      <rect width="16.3" x="277.32" y="68.4" class="a"/>
    </clipPath>
    <linearGradient id="r" x1="-1217.88" x2="-1216.88" y1="76.9" y2="76.9" gradientTransform="matrix(0 11 11 0 -557.8 13408.4)" xlink:href="#b"/>
    <clipPath id="s">
      <path d="M269.24 53.4l8.08 15h16.3l-12.13-7.46-12.25-7.54z" class="a"/>
    </clipPath>
    <clipPath id="t">
      <path d="M269.24 53.4h24.37v15h-24.37z" class="a"/>
    </clipPath>
    <clipPath id="u">
      <path d="M269.24 83.4l8.08-15-8.08 15z" class="a"/>
    </clipPath>
    <linearGradient id="v" x1="-1223.93" x2="-1222.56" y1="17.74" y2="17.74" gradientTransform="matrix(0 21.9 21.9 0 -115.2 26850.1)" xlink:href="#b"/>
    <clipPath id="w">
      <path d="M269.24 53.4l8.08 15-8.08-15z" class="a"/>
    </clipPath>
    <clipPath id="x">
      <path d="M269.24 53.4h8.08v15h-8.08z" class="a"/>
    </clipPath>
    <clipPath id="y">
      <path d="M269.24 53.4l8.08 15z" class="a"/>
    </clipPath>
    <clipPath id="z">
      <path d="M269.24 53.4h8.08v15h-8.08z" class="a"/>
    </clipPath>
    <clipPath id="aa">
      <path d="M269.24 83.4l8.08-15-8.08-15v30z" class="a"/>
    </clipPath>
    <clipPath id="ab">
      <path d="M269.24 53.4h8.08v30h-8.08z" class="a"/>
    </clipPath>
    <clipPath id="ac">
      <path d="M293.62 68.4l12.14-7.47zm24.38-15l-12.24 7.54L318 53.4z" class="a"/>
    </clipPath>
    <linearGradient id="ad" x1="-1217.88" x2="-1216.51" y1="77.13" y2="77.13" gradientTransform="matrix(0 11 11 0 -540 13408.4)" xlink:href="#b"/>
    <clipPath id="ae">
      <path d="M301.7 53.4l-8.08 15 12.14-7.46L318 53.4h-16.3z" class="a"/>
    </clipPath>
    <clipPath id="af">
      <path d="M293.62 53.4H318v15h-24.38z" class="a"/>
    </clipPath>
    <clipPath id="ag"/>
    <linearGradient id="ah" x1="301.7" x2="301.7" y1="53.4" y2="53.4" gradientTransform="matrix(0 0 0 0 -1465.3 -810.9)" xlink:href="#b"/>
    <clipPath id="ai">
      <path d="M293.62 38.4l8.08 15H318l-12.24-7.53-12.14-7.47z" class="a"/>
    </clipPath>
    <clipPath id="aj">
      <path d="M293.62 38.4H318v15h-24.38z" class="a"/>
    </clipPath>
    <clipPath id="ak"/>
    <linearGradient id="al" x1="293.62" x2="293.62" y1="68.4" y2="68.4" gradientTransform="matrix(0 0 0 0 -1465.3 -810.9)" xlink:href="#b"/>
    <clipPath id="am">
      <path d="M293.62 68.4l4.04-7.5-4.04 7.5z" class="a"/>
    </clipPath>
    <clipPath id="an">
      <path d="M293.62 60.9h4.04v7.5h-4.04z" class="a"/>
    </clipPath>
    <clipPath id="ao">
      <path d="M293.62 68.4l8.08-15-8.08-15v30z" class="a"/>
    </clipPath>
    <clipPath id="ap">
      <path d="M293.62 38.4h8.08v30h-8.08z" class="a"/>
    </clipPath>
    <clipPath id="aq"/>
    <linearGradient id="ar" x1="-1218.23" x2="-1217.23" y1="77.85" y2="77.85" xlink:href="#b"/>
    <clipPath id="as">
      <path d="M281.49 45.87l-12.25 7.53 12.25-7.53 12.13-7.47-12.13 7.47z" class="a"/>
    </clipPath>
    <clipPath id="au">
      <path d="M281.49 45.87l-12.25 7.53h16.3l8.08-15-12.13 7.47z" class="a"/>
    </clipPath>
    <clipPath id="aw"/>
    <linearGradient id="ax" x1="-1217.88" x2="-1216.51" y1="77.65" y2="77.65" gradientTransform="matrix(0 11 11 0 -557.8 13408.4)" xlink:href="#b"/>
    <clipPath id="ay">
      <path d="M269.24 53.4l12.25 7.54 12.13 7.46-8.08-15h-16.3z" class="a"/>
    </clipPath>
    <clipPath id="ba">
      <path d="M293.62 68.4l-8.08-15zm0-30v30-30z" class="a"/>
    </clipPath>
    <linearGradient id="bb" x1="-1224.11" x2="-1222.75" y1="17.94" y2="17.94" gradientTransform="matrix(0 21.9 21.9 0 -103.2 26839.1)" xlink:href="#b"/>
    <clipPath id="bc">
      <path d="M285.54 53.4l8.08 15v-30l-8.08 15z" class="a"/>
    </clipPath>
    <clipPath id="bd">
      <path d="M285.54 38.4h8.08v30h-8.08z" class="a"/>
    </clipPath>
  </defs>
  <path d="M0 0h340v106.8H0z" class="a"/>
  <rect x="293.62" y="38.4" class="f g"/>
  <path d="M269.24 38.4h8.08v15h-8.08z" class="j k"/>
  <path d="M281.38 68.4h12.24v7.53h-12.24z" class="n o"/>
  <rect width="16.3" x="277.32" y="68.4" class="r s"/>
  <use transform="matrix(.2 0 0 .2 269.1 53.2)" xlink:href="#bf" class="t u"/>
  <path d="M269.24 68.4h8.08v15h-8.08z" class="v w"/>
  <path d="M293.62 53.4H318v15h-24.38z" class="ad ae"/>
  <path d="M318 53.4h-16.3l-8.08 15 8.08-15H318" class="af"/>
  <rect x="293.62" y="68.4" class="am an"/>
  <rect x="293.62" y="38.4" class="as at"/>
  <use transform="matrix(.2 0 0 .2 269.1 38.4)" xlink:href="#be" class="au e"/>
  <use transform="matrix(.2 0 0 .2 269.1 38.4)" xlink:href="#be" class="av e"/>
  <rect x="293.62" y="68.4" class="aw ax"/>
  <use transform="matrix(.2 0 0 .2 269.1 53.2)" xlink:href="#bf" class="ay u"/>
  <path d="M285.54 38.4h8.08v30h-8.08z" class="az ba"/>
  <path d="M266.83 66.9v-1.49l-.61 1.48h-.16l-.61-1.48v1.49h-.18v-1.71h.28l.6 1.44.6-1.44h.25v1.71zm-2.63-1.55v1.55h-.2v-1.55h-.65v-.17h1.5v.17zM90.58 76.9a2 2 0 0 1-.28 1.1 2.34 2.34 0 0 1-.72.74 3.13 3.13 0 0 1-1 .42 4.86 4.86 0 0 1-1.11.13 4.78 4.78 0 0 1-1.09-.12 2.65 2.65 0 0 1-.92-.4 2.13 2.13 0 0 1-.65-.72 2.42 2.42 0 0 1-.27-1.05h1.35a1.54 1.54 0 0 0 .17.59 1.24 1.24 0 0 0 .36.41 1.46 1.46 0 0 0 .5.24 2.29 2.29 0 0 0 .6.08 2.53 2.53 0 0 0 .59-.07 1.73 1.73 0 0 0 .54-.22 1.27 1.27 0 0 0 .39-.39 1.05 1.05 0 0 0 .15-.58.82.82 0 0 0-.14-.48 1.36 1.36 0 0 0-.34-.34 2.14 2.14 0 0 0-.45-.23l-.46-.16-1-.31a4.63 4.63 0 0 1-1-.43 2.59 2.59 0 0 1-.76-.66 1.58 1.58 0 0 1-.3-1 2 2 0 0 1 .26-1 2.12 2.12 0 0 1 .68-.69 3 3 0 0 1 .94-.39 4.71 4.71 0 0 1 1.05-.12 4.9 4.9 0 0 1 1 .1 2.49 2.49 0 0 1 .86.35 1.88 1.88 0 0 1 .61.66 2.06 2.06 0 0 1 .23 1H89a1.15 1.15 0 0 0-.44-.91 1.75 1.75 0 0 0-1-.26 2.38 2.38 0 0 0-.54.06 1.52 1.52 0 0 0-.48.21 1.08 1.08 0 0 0-.34.36 1 1 0 0 0-.13.53.78.78 0 0 0 .24.59 2.1 2.1 0 0 0 .59.39 4.53 4.53 0 0 0 .73.26l.65.18c.28.09.56.19.83.3a3.12 3.12 0 0 1 .72.42 2 2 0 0 1 .52.6 1.76 1.76 0 0 1 .2.86m4.03-4.62v6.83h-1.35v-6.83h-2.48v-1.02h6.3v1.02h-2.47m7.54 1.12a1.07 1.07 0 0 0-.16-.61 1 1 0 0 0-.41-.35 1.75 1.75 0 0 0-.56-.16 5.13 5.13 0 0 0-.63 0H99v2.42h1.13a6.59 6.59 0 0 0 .7 0 2 2 0 0 0 .63-.17 1.15 1.15 0 0 0 .46-.38 1.13 1.13 0 0 0 .18-.67m.06 5.7a5.18 5.18 0 0 1-.2-1c0-.33-.07-.65-.1-1s-.06-.49-.09-.68a1.1 1.1 0 0 0-.18-.47.79.79 0 0 0-.39-.27 2.2 2.2 0 0 0-.7-.09H99v3.49h-1.33V71.3h3a7.06 7.06 0 0 1 1 .07 2.75 2.75 0 0 1 .9.28 1.74 1.74 0 0 1 .65.59 1.82 1.82 0 0 1 .25 1 1.71 1.71 0 0 1-.47 1.26 2.38 2.38 0 0 1-1.15.63 1.7 1.7 0 0 1 .6.21 1 1 0 0 1 .36.36 1.54 1.54 0 0 1 .18.5 6.46 6.46 0 0 1 .09.64c0 .24 0 .46.07.66s0 .4.08.58a4.76 4.76 0 0 0 .12.53 5 5 0 0 0 .2.54zm1.94-.07v-7.85h5.09v.99h-3.76v2.34h3.58v.99h-3.58v2.53h3.9v1h-5.23m10.48 0l-3.47-6.57v6.57h-1.19v-7.85h1.84l3.48 6.57v-6.57h1.19v7.85h-1.85m9.24-.33q-.71.18-1.42.31a8.35 8.35 0 0 1-1.43.12 4.53 4.53 0 0 1-1.67-.26 3.35 3.35 0 0 1-1.23-.81 3.49 3.49 0 0 1-.76-1.28 5 5 0 0 1-.26-1.66 5.11 5.11 0 0 1 .25-1.62 3.74 3.74 0 0 1 .73-1.3 3.42 3.42 0 0 1 1.19-.86 4 4 0 0 1 1.62-.32 4.35 4.35 0 0 1 1.08.13 2.68 2.68 0 0 1 .9.41 2.17 2.17 0 0 1 .65.72 2.64 2.64 0 0 1 .31 1.07h-1.38a1.41 1.41 0 0 0-.53-1 1.79 1.79 0 0 0-1.09-.31 2 2 0 0 0-1.07.27 2.25 2.25 0 0 0-.72.69 3 3 0 0 0-.4 1 4.82 4.82 0 0 0-.12 1.09 4.77 4.77 0 0 0 .14 1.17 2.87 2.87 0 0 0 .45 1 2.28 2.28 0 0 0 .79.69 2.48 2.48 0 0 0 1.17.26 5.38 5.38 0 0 0 1.5-.21V76h-1.78v-1h3.07zm4.3-6.5v6.83h-1.35v-6.83h-2.47v-1.02h6.3v1.02h-2.48m8.19 6.83v-3.5h-3.75v3.5h-1.34v-7.85h1.34v3.33h3.75v-3.33h1.35v7.85h-1.35m2.21-1.22h1.35v1.22h-1.35zm11.27-1.04a2 2 0 0 1-.28 1.09 2.34 2.34 0 0 1-.72.74 3.11 3.11 0 0 1-1 .42 4.85 4.85 0 0 1-1.11.13 4.78 4.78 0 0 1-1.09-.12 2.65 2.65 0 0 1-.92-.4A2.13 2.13 0 0 1 144 78a2.43 2.43 0 0 1-.28-1.08h1.35a1.51 1.51 0 0 0 .17.59 1.24 1.24 0 0 0 .36.41 1.46 1.46 0 0 0 .5.24 2.29 2.29 0 0 0 .6.08 2.52 2.52 0 0 0 .59-.07 1.71 1.71 0 0 0 .54-.22 1.24 1.24 0 0 0 .39-.39 1.05 1.05 0 0 0 .15-.58.82.82 0 0 0-.14-.48 1.36 1.36 0 0 0-.34-.34 2.14 2.14 0 0 0-.45-.23l-.46-.16-1-.31a4.6 4.6 0 0 1-1-.43 2.59 2.59 0 0 1-.76-.66 1.58 1.58 0 0 1-.31-1 2 2 0 0 1 .26-1 2.12 2.12 0 0 1 .68-.69 3 3 0 0 1 .94-.39 4.71 4.71 0 0 1 1.05-.12 4.91 4.91 0 0 1 1 .1 2.48 2.48 0 0 1 .86.35 1.86 1.86 0 0 1 .61.66 2.06 2.06 0 0 1 .23 1h-1.35a1.15 1.15 0 0 0-.44-.91 1.74 1.74 0 0 0-1-.26 2.38 2.38 0 0 0-.54.06 1.52 1.52 0 0 0-.48.21 1.08 1.08 0 0 0-.34.36 1 1 0 0 0-.13.53.78.78 0 0 0 .24.59 2.1 2.1 0 0 0 .59.39 4.53 4.53 0 0 0 .73.26l.65.18c.28.09.56.19.83.3a3.12 3.12 0 0 1 .72.42 2 2 0 0 1 .52.6 1.76 1.76 0 0 1 .2.86m4.05-4.54v6.83h-1.35v-6.83h-2.48v-1.02h6.3v1.02h-2.47m5.33.05l-1.42 3.87h2.89zm2.6 6.78l-.75-2h-3.64l-.74 2h-1.35l3.2-7.85h1.49l3.29 7.85zm6.35-2.27a1.43 1.43 0 0 0-.13-.65 1 1 0 0 0-.36-.4 1.45 1.45 0 0 0-.53-.2 3.77 3.77 0 0 0-.65-.05h-1.52v2.59h1.29a5.8 5.8 0 0 0 .69 0 2.1 2.1 0 0 0 .61-.17 1.06 1.06 0 0 0 .43-.39 1.25 1.25 0 0 0 .16-.68m-.27-3.45a1.11 1.11 0 0 0-.12-.54 1 1 0 0 0-.33-.35 1.49 1.49 0 0 0-.47-.19 2.48 2.48 0 0 0-.55-.06h-1.46v2.36h1.35a2.89 2.89 0 0 0 .6-.06 1.53 1.53 0 0 0 .5-.2 1 1 0 0 0 .35-.37 1.2 1.2 0 0 0 .13-.59m1.66 3.51a2 2 0 0 1-.26 1.07 2 2 0 0 1-.68.67 2.9 2.9 0 0 1-1 .35 5.88 5.88 0 0 1-1.06.1h-2.93V71.3h3a5.22 5.22 0 0 1 1 .09 2.47 2.47 0 0 1 .84.31 1.68 1.68 0 0 1 .59.61 1.93 1.93 0 0 1 .22 1 1.66 1.66 0 0 1-.4 1.16 2.17 2.17 0 0 1-1.06.62 2.43 2.43 0 0 1 1.26.6 1.7 1.7 0 0 1 .49 1.3m.72-5.69h1.35v7.85h-1.35zm2.27 7.86v-7.85h1.34v6.83h3.78v1.02h-5.12m5.92-7.86h1.35v7.85h-1.35zm5.82 1.03v6.83h-1.35v-6.83h-2.47v-1.02h6.29v1.02h-2.47m7.23 3.7v3.13h-1.34v-3.19l-3.06-4.68h1.58l2.22 3.64 2.2-3.64h1.45l-3.05 4.74m1.92 1.91h1.35v1.22h-1.35zm9.18 1.22h-1.55l-2.94-7.85h1.46l2.32 6.6 2.33-6.6h1.34l-2.96 7.85m3.51 0v-7.85h5.08v.99h-3.76v2.34h3.59v.99h-3.59v2.53h3.9v1h-5.22m10.28-5.71a1.07 1.07 0 0 0-.16-.61 1 1 0 0 0-.41-.35 1.75 1.75 0 0 0-.57-.16 5.1 5.1 0 0 0-.63 0h-1.34v2.42h1.13a6.55 6.55 0 0 0 .69 0 2 2 0 0 0 .63-.17 1.15 1.15 0 0 0 .46-.38 1.13 1.13 0 0 0 .18-.67m.06 5.7a5.18 5.18 0 0 1-.2-1l-.1-1c0-.26-.06-.49-.09-.68a1.1 1.1 0 0 0-.18-.47.78.78 0 0 0-.39-.27 2.21 2.21 0 0 0-.7-.09h-1.49v3.49h-1.35V71.3h3a7.07 7.07 0 0 1 1 .07 2.76 2.76 0 0 1 .9.28 1.74 1.74 0 0 1 .65.59 1.83 1.83 0 0 1 .25 1 1.72 1.72 0 0 1-.43 1.24 2.38 2.38 0 0 1-1.15.63 1.71 1.71 0 0 1 .6.21 1 1 0 0 1 .36.36 1.48 1.48 0 0 1 .18.5 6.43 6.43 0 0 1 .09.64c0 .24 0 .46.07.66s0 .4.08.58a5.09 5.09 0 0 0 .13.53 5 5 0 0 0 .2.54zm7.75-2.33a2 2 0 0 1-.28 1.09 2.34 2.34 0 0 1-.72.74 3.13 3.13 0 0 1-1 .42 4.86 4.86 0 0 1-1.11.13 4.78 4.78 0 0 1-1.09-.12 2.65 2.65 0 0 1-.92-.4 2.13 2.13 0 0 1-.65-.72 2.42 2.42 0 0 1-.28-1.08h1.35a1.49 1.49 0 0 0 .17.59 1.24 1.24 0 0 0 .36.41 1.46 1.46 0 0 0 .5.24 2.29 2.29 0 0 0 .6.08 2.52 2.52 0 0 0 .59-.07 1.73 1.73 0 0 0 .54-.22 1.26 1.26 0 0 0 .39-.39 1.05 1.05 0 0 0 .15-.58.82.82 0 0 0-.14-.48 1.34 1.34 0 0 0-.34-.34 2.14 2.14 0 0 0-.45-.23l-.46-.16-1-.31a4.6 4.6 0 0 1-1-.43 2.59 2.59 0 0 1-.76-.66 1.58 1.58 0 0 1-.31-1 2 2 0 0 1 .26-1 2.12 2.12 0 0 1 .68-.69 3 3 0 0 1 .94-.39 4.73 4.73 0 0 1 1.05-.12 4.91 4.91 0 0 1 1 .1 2.49 2.49 0 0 1 .86.35 1.85 1.85 0 0 1 .61.66 2 2 0 0 1 .23 1h-1.35a1.15 1.15 0 0 0-.44-.91 1.75 1.75 0 0 0-1-.26 2.38 2.38 0 0 0-.54.06 1.52 1.52 0 0 0-.48.21 1.08 1.08 0 0 0-.34.36 1 1 0 0 0-.13.53.78.78 0 0 0 .24.59 2.1 2.1 0 0 0 .59.39 4.53 4.53 0 0 0 .73.26l.65.18c.28.09.56.19.83.3a3.12 3.12 0 0 1 .72.42 2 2 0 0 1 .52.6 1.75 1.75 0 0 1 .2.86m3.8-4.53l-1.42 3.87h2.89zm2.6 6.78l-.75-2h-3.64l-.74 2H224l3.2-7.85h1.49l3.31 7.85zm3.88-6.83v6.83H233v-6.83h-2.48v-1.02h6.3v1.02h-2.47m3.13-1.03h1.35v7.85h-1.35zm2.05 7.86v-7.85h1.35v6.83h3.78v1.02h-5.13m5.7-7.86h1.35v7.85h-1.35zm5.61 1.03v6.83h-1.35v-6.83h-2.48v-1.02h6.3v1.02h-2.47m7.23 3.7v3.13h-1.35v-3.19l-3.05-4.68h1.57l2.23 3.64 2.2-3.64h1.45l-3.05 4.74m1.71 1.91h1.35v1.22h-1.35zM51.22 58.13A7.66 7.66 0 0 1 49.75 63 9.79 9.79 0 0 1 46 65.88a17.39 17.39 0 0 1-4.86 1.38 36.69 36.69 0 0 1-5 .36q-6.93 0-10.58-2.18A7.48 7.48 0 0 1 22 58.5h10.85a4.46 4.46 0 0 0 .85 3.13 3.76 3.76 0 0 0 2.77.86 3.76 3.76 0 0 0 2.48-.75 2.42 2.42 0 0 0 .9-2q0-1.54-2-2.26l-.92-.28-1.11-.3-1.58-.41-2.33-.59a37.66 37.66 0 0 1-4.44-1.34 11.47 11.47 0 0 1-2.56-1.34 5.91 5.91 0 0 1-2.52-5 7.36 7.36 0 0 1 1-3.78 8.47 8.47 0 0 1 2.84-2.86 14.81 14.81 0 0 1 4.58-1.83 27.24 27.24 0 0 1 6.19-.56q6.86 0 10.3 2.35A7.63 7.63 0 0 1 50.81 48H40.08a4 4 0 0 0-.87-3 3.56 3.56 0 0 0-2.52-.81 3.45 3.45 0 0 0-2.24.66 2 2 0 0 0-.81 1.64 2.44 2.44 0 0 0 .6 1.71 4.35 4.35 0 0 0 1.68 1.07 17.1 17.1 0 0 0 2.56.73l3.29.7q1.51.3 3.18.77A13.25 13.25 0 0 1 48 52.84a7.19 7.19 0 0 1 2.3 2.09 5.41 5.41 0 0 1 .9 3.2M71 53.29q0-1.58-.15-3.23a19.1 19.1 0 0 0-.38-2.59 4.18 4.18 0 0 0-1-2 2.36 2.36 0 0 0-1.71-.6 2.32 2.32 0 0 0-1.88.81 5.83 5.83 0 0 0-1 2.62 23.74 23.74 0 0 0-.3 2.47q-.11 1.45-.11 2.7a19 19 0 0 0 .77 6.34 2.61 2.61 0 0 0 2.47 2 2.66 2.66 0 0 0 2.48-2 19.19 19.19 0 0 0 .81-6.52m11.3 0a18.28 18.28 0 0 1-.87 6 11.21 11.21 0 0 1-2.67 4.29q-4.07 4-11.45 4-6.89 0-10.54-3.71t-3.65-10.68q0-6.78 3.82-10.39T68 39.19q7.08 0 10.69 3.69t3.62 10.43m2.23 13.59V39.67h10.88v21.39h11.19v5.84H84.54m24.3-27.22h10.88v27.23h-10.88zm29.95 13.51q0-4.29-1-6.21a2.51 2.51 0 0 0-1.24-1.21 5.7 5.7 0 0 0-2.19-.34h-1.73V61.1h2.07a4.86 4.86 0 0 0 2-.36 2.68 2.68 0 0 0 1.26-1.26 7.29 7.29 0 0 0 .66-2.43 32.4 32.4 0 0 0 .19-3.86m11.37.23a14 14 0 0 1-1.68 7 12.19 12.19 0 0 1-4.91 4.75 14.07 14.07 0 0 1-3.77 1.35 25.25 25.25 0 0 1-5 .41H122V39.68h12.5q2 0 3.65.15a20.88 20.88 0 0 1 2.94.47 12.13 12.13 0 0 1 2.41.85 12 12 0 0 1 2.07 1.28A10.66 10.66 0 0 1 149 47a16.64 16.64 0 0 1 1.19 6.46"/>
  <path d="M169.43 45.81V66.9h-10.81V45.81h-8.09v-6.13h26.81v6.13h-7.91m10.14 21.09V39.67h22.37v6.11h-11.98v4.44h11.49v5.91h-11.49v4.82h12.47v5.95h-22.86m52.09-9.38a10.46 10.46 0 0 1-1.09 4.41 8.85 8.85 0 0 1-2.69 3.13 12.12 12.12 0 0 1-4.1 1.86 21.17 21.17 0 0 1-5.33.62q-7.23 0-11-3.48t-3.78-10.41q0-7.31 3.69-10.83t11-3.52a19.33 19.33 0 0 1 6.65 1 9.92 9.92 0 0 1 4.5 3.24 7.73 7.73 0 0 1 1.3 2.41 15.46 15.46 0 0 1 .62 3.24h-10.91a7.93 7.93 0 0 0-.6-3.29 1.82 1.82 0 0 0-1.73-1 2.56 2.56 0 0 0-2.43 2 21.34 21.34 0 0 0-.73 6.63 18.23 18.23 0 0 0 .77 6.23 2.6 2.6 0 0 0 2.47 1.94 2.07 2.07 0 0 0 1.92-1 6.82 6.82 0 0 0 .64-3.24zm18.58 9.38V56.09h-5.46V66.9H233.9V39.67h10.88v10.55h5.46V39.67h10.88V66.9h-10.88" class="af"/>
</svg>
